<svg width="79" height="103" viewBox="0 0 79 103" fill="none" xmlns="http://www.w3.org/2000/svg">
<path d="M4.97704 0H76.3797C77.1976 0 78.0395 0.841817 78.9052 2.52545V87.1991C78.9052 87.5864 77.5089 88.9827 74.7163 91.388V94.706C77.5089 95.0926 78.9052 95.9098 78.9052 97.1576V99.6831C78.9052 100.549 77.7991 101.654 75.5871 103H9.95299C3.3184 103 0.00073489 100.235 0 94.706V7.51131C0 4.42918 1.65901 1.92541 4.97704 0ZM8.29397 89.7235V94.7005H67.292V89.7235H8.29397Z" fill="#292929"/>
<path d="M36.7833 15.2861C36.7798 15.3413 36.7652 15.3952 36.7404 15.4446C36.7156 15.4941 36.6811 15.538 36.6389 15.5738C36.6359 15.5934 36.6376 15.6135 36.6438 15.6324C36.65 15.6513 36.6605 15.6684 36.6746 15.6825C36.6886 15.6966 36.7058 15.7071 36.7247 15.7133C36.7436 15.7195 36.7636 15.7212 36.7833 15.7182L36.6389 16.4391V30.6482H20.8435C20.6991 30.6967 20.623 30.7684 20.623 30.8687V36.2778H36.5628L36.7833 36.3506L36.6389 36.5711V67.1388C36.6424 67.2941 36.6928 67.4447 36.7833 67.5709L36.6389 67.7914L36.7833 68.2963H42.2652V36.4862C42.2602 36.4561 42.2625 36.4253 42.2718 36.3963C42.2812 36.3673 42.2973 36.3409 42.3188 36.3193C42.3404 36.2978 42.3667 36.2817 42.3958 36.2724C42.4248 36.263 42.4556 36.2608 42.4857 36.2657H58.0606C58.0907 36.2709 58.1216 36.2688 58.1507 36.2596C58.1799 36.2504 58.2064 36.2343 58.228 36.2127C58.2496 36.191 58.2657 36.1646 58.2749 36.1354C58.2841 36.1063 58.2862 36.0754 58.281 36.0452V30.8599C58.2862 30.8298 58.2841 30.7988 58.2749 30.7697C58.2657 30.7406 58.2496 30.7141 58.228 30.6925C58.2064 30.6708 58.1799 30.6547 58.1507 30.6455C58.1216 30.6363 58.0907 30.6342 58.0606 30.6394H42.4813C42.4511 30.6446 42.4202 30.6425 42.3911 30.6333C42.3619 30.6241 42.3355 30.608 42.3138 30.5863C42.2922 30.5647 42.2761 30.5382 42.2669 30.5091C42.2577 30.48 42.2556 30.449 42.2608 30.4189V15.2861H36.7833Z" fill="white"/>
</svg>
