<svg width="107" height="104" viewBox="0 0 107 104" fill="none" xmlns="http://www.w3.org/2000/svg">
<path d="M67.6371 0H67.7816C68.3582 0 69.1274 1.05749 70.0892 3.17248C70.2334 3.36639 71.4589 5.48138 73.7659 9.51743L81.1202 21.9911C82.0085 23.3877 82.9714 24.7355 84.0047 26.0285C87.8501 32.5648 92.3926 40.0393 97.6322 48.452C97.6322 48.8845 97.9205 49.3172 98.4971 49.7503C103.737 58.0654 106.357 62.4153 106.357 62.7999V63.2323C106.357 64.3383 105.01 65.348 102.318 66.2613C96.7424 68.9529 90.4217 71.0197 83.356 72.4618C78.4047 73.5671 71.8674 74.6246 63.7443 75.6343C63.7443 75.4898 63.6473 75.4181 63.4534 75.4181C63.457 75.4473 63.4539 75.477 63.4443 75.5049C63.4347 75.5328 63.4189 75.5581 63.3981 75.5789C63.3772 75.5998 63.3519 75.6156 63.324 75.6252C63.2961 75.6348 63.2664 75.6379 63.2372 75.6343H62.5866C62.4078 75.638 62.2321 75.5877 62.0824 75.4898C61.745 75.5383 61.4325 75.7548 61.1448 76.1394C47.8292 78.2538 40.4281 79.6955 38.9414 80.4648H37.5714C35.8907 83.3489 34.9535 85.536 34.7596 87.0259C34.4234 88.5158 34.2551 89.4531 34.2544 89.8377V90.1984C34.2517 90.218 34.2535 90.238 34.2598 90.2568C34.2661 90.2755 34.2767 90.2926 34.2907 90.3066C34.3047 90.3206 34.3217 90.3312 34.3405 90.3375C34.3593 90.3438 34.3792 90.3456 34.3989 90.3429L34.2544 90.6337V91.1379L34.3989 92.0028L34.6897 91.8593H34.7624V92.0028C34.7624 92.1967 34.6897 92.2937 34.5462 92.2937C34.5462 92.4876 34.8827 92.8961 35.5556 93.5192C36.6609 93.1831 37.5012 93.0147 38.0765 93.0141H38.22C38.22 90.8512 37.9556 89.2893 37.4269 88.3281C39.7345 87.4606 41.5602 87.0269 42.9041 87.0269C43.577 87.0269 43.9134 88.6374 43.9134 91.8583H44.0579L102.027 78.8077L103.181 76.1404C103.181 75.8999 103.061 75.2267 102.82 74.1208H102.892C102.748 73.784 102.676 73.3273 102.676 72.7507V71.9576H102.892C104.142 74.6498 105.007 76.8611 105.488 78.5915V78.6633C105.488 79.7214 103.829 80.4906 100.513 80.9709C92.0051 83.0852 73.1867 87.4832 44.0579 94.165V94.8136C44.0579 97.0249 44.6826 98.8025 45.9321 100.146C47.5668 100.724 49.3935 101.108 51.4122 101.3L51.6284 101.157C51.7809 101.174 51.9282 101.223 52.0608 101.3L52.9257 101.157C53.057 101.17 53.182 101.219 53.2864 101.3C54.4402 101.204 56.3871 100.939 59.1271 100.507C60.3766 101.036 61.2169 101.301 61.648 101.3V101.516C55.9288 102.622 52.6843 103.175 51.9144 103.175C50.3282 103.175 46.4822 102.021 40.3764 99.7139C39.1747 98.9938 38.5739 97.648 38.5739 95.6765C37.0361 95.917 35.5941 96.2053 34.2476 96.5414C33.43 96.5414 31.6275 93.8498 28.8403 88.4667C15.9584 61.6926 6.63323 42.8259 0.864861 31.8663C0.288282 30.6653 0 29.1273 0 27.2521C0.480267 20.379 1.82606 16.2935 4.03736 14.9956C4.61458 14.9956 6.65749 14.4426 10.1661 13.3366C17.0398 11.7989 28.0232 9.92433 43.1164 7.71304C50.8084 5.98265 57.634 3.91421 63.593 1.5077C65.761 0.503214 67.109 0.000646389 67.6371 0ZM4.47656 28.6997L4.33212 29.5655V29.709H4.47656C4.47656 29.4695 4.54927 29.3493 4.69277 29.3493C4.59711 29.2051 4.54928 28.9886 4.54928 28.6997H4.47656ZM5.55863 23.2206C5.41448 23.653 5.17403 23.8692 4.83726 23.8692V24.3744H4.98171C4.98171 24.1339 5.05345 24.0137 5.19792 24.0137C5.34239 24.0137 5.46264 24.1339 5.55863 24.3744V24.5857H5.34241V25.1675C5.3365 25.5237 5.23612 25.872 5.05154 26.1768C5.13281 26.281 5.18288 26.406 5.19598 26.5375H5.48686C5.631 25.5285 6.01564 25.0237 6.6407 25.023V23.365H6.20822L5.55863 23.2206ZM5.55863 23.5114H5.70212C5.89525 23.6407 6.11966 23.7154 6.35172 23.7276C6.35761 23.7672 6.35417 23.8076 6.34163 23.8456C6.3291 23.8835 6.30785 23.9181 6.27957 23.9463C6.25129 23.9746 6.21675 23.9959 6.17877 24.0084C6.14079 24.0209 6.1004 24.0244 6.06084 24.0185C5.91118 23.9207 5.73547 23.8703 5.55669 23.8741L5.55863 23.5114ZM11.0377 22.0648V22.4972H11.1822V22.0648H11.0377ZM11.1822 22.8579V23.0741C11.1822 23.2189 11.4227 23.3631 11.9036 23.5066C12.1912 24.3721 12.5034 24.8769 12.8402 25.0211C12.8366 24.842 12.8869 24.666 12.9847 24.5159C12.6007 24.5159 12.2885 24.1316 12.048 23.3631C11.9995 23.3631 11.7591 23.1947 11.3267 22.8579H11.1822ZM21.8535 64.965C21.7571 65.1091 21.6602 65.614 21.5626 66.4795C21.8515 66.4795 22.0199 66.0228 22.0677 65.1095L21.8535 64.965ZM24.0835 57.7552C23.5203 58.8553 23.0167 59.9848 22.5748 61.139C22.6718 61.2835 22.7183 61.5472 22.7183 61.9321C22.814 61.9321 23.1986 61.0918 23.8721 59.4112L24.5208 58.4746C24.5208 58.0412 24.3773 57.8017 24.0883 57.7532L24.0835 57.7552ZM34.5385 88.8303H34.7596V88.9748H34.5433L34.5385 88.8303Z" fill="#292929"/>
<path d="M32.3709 25.5553L32.3398 25.7376L33.6158 25.9538C33.7981 25.9848 34.1213 26.4773 34.5854 27.4314L34.5699 27.5226C34.5389 27.7048 32.886 28.05 29.6114 28.5581L29.4292 28.527L28.5817 26.8788C28.8057 26.6674 28.922 26.5307 28.9327 26.4696C28.9734 26.2262 28.9037 26.0895 28.7214 26.0585L25.6342 26.5675L25.5566 27.0232L26.6503 27.2084C27.2366 27.8076 28.3067 29.4268 29.8606 32.066L29.4185 32.4597L29.3564 32.8242C31.5968 32.5166 32.7377 32.2412 32.779 31.9982L32.7946 31.907C32.2374 31.8753 31.9284 31.854 31.8676 31.843C31.5031 31.7816 30.9174 30.9946 30.1107 29.4821C30.1618 29.1789 31.8143 28.8338 35.0683 28.4466L35.2505 28.4776C36.2305 29.7057 36.6997 30.4417 36.6584 30.6853L36.3374 31.4755C38.1829 31.2875 39.3186 31.0421 39.7446 30.7396L39.7756 30.5574L39.5022 30.5108C39.2767 30.4677 39.0435 30.4937 38.8331 30.5855C37.485 29.0623 36.3209 27.3856 35.365 25.5902L35.9292 25.0288L35.6868 24.8L35.5046 24.7689C33.4568 25.0482 32.4122 25.3103 32.3709 25.5553ZM30.327 33.7434L30.23 34.2903L30.6256 34.17L31.2646 34.2776C33.2038 36.8567 34.3492 38.5826 34.7008 39.4552C34.6601 39.6986 34.4564 39.7888 34.0919 39.7277L34.0764 39.8188C34.0971 40.0722 34.1982 40.2141 34.3798 40.2445C38.2323 39.6472 40.2203 38.9837 40.3437 38.2539L40.3748 38.0716C40.5293 37.1602 39.7562 36.3729 38.0556 35.7097C37.845 35.8009 37.612 35.8269 37.3865 35.7844C37.2275 34.5065 36.9709 33.8064 36.6167 33.6843L35.4018 33.1025C35.0385 33.0392 33.3469 33.2518 30.327 33.7405V33.7434ZM33.5955 33.8278L34.7803 34.0285C35.7499 34.1933 36.1639 34.7014 36.0223 35.5526C35.2214 35.8545 34.5776 35.9641 34.0909 35.8813L33.0622 34.2069C33.0829 34.0828 33.2609 33.9554 33.5964 33.8248L33.5955 33.8278ZM36.8261 36.3487C37.616 36.4825 38.3138 36.9757 38.9194 37.8283L38.8273 38.3761C38.1564 39.0121 37.274 39.2384 36.1803 39.0548L34.7725 36.847L34.8036 36.6648C34.8443 36.4159 35.5185 36.3083 36.8261 36.3419V36.3487ZM46.4376 23.3475L44.8862 23.0848C41.2367 23.2141 39.2681 24.131 38.9805 25.8355L38.9029 26.2912C38.6554 27.7494 40.0509 28.9236 43.0896 29.8137C46.6137 30.4109 49.0176 29.506 50.3014 27.0989L50.3479 26.8254C49.867 24.8682 48.6844 23.7299 46.8002 23.4106L46.8312 23.2283L46.4376 23.3475ZM44.1862 23.9031L45.6406 24.1503C47.2818 24.4289 48.3228 25.4806 48.7636 27.3054L48.7326 27.4877C48.5167 28.7643 46.9007 29.2717 43.8847 29.0099C41.4045 28.1528 40.2733 27.0862 40.4911 25.8103L40.5997 25.1723C41.6527 24.0961 42.8482 23.6707 44.1862 23.8963V23.9031ZM39.6485 32.419C40.56 32.5741 41.1869 33.118 41.5295 34.0508C42.3879 35.2589 43.1801 36.487 43.906 37.7352L43.4639 38.1288L43.5841 38.5244C45.5413 38.0435 46.6725 37.8286 46.9776 37.8796L47.0242 37.6062L45.7463 37.3842C44.8368 36.4792 43.6859 34.7838 42.2936 32.2978L42.3401 32.0243L42.7047 32.0864L42.7667 31.7218L42.4022 31.6598C40.6291 31.7968 39.7112 32.0476 39.6485 32.4122V32.419ZM45.1093 31.1876C46.1435 31.3621 46.9676 32.0331 47.5817 33.2004C48.9844 35.2508 49.6705 36.3674 49.6401 36.5504L49.2581 37.1418L49.5005 37.3706C53.1403 36.9246 55.0527 36.1544 55.2375 35.0601C55.4224 33.9658 54.3455 33.1255 52.0069 32.5392C52.2124 31.3246 51.8291 30.6346 50.8569 30.4691L50.2189 30.3615C49.3677 30.2167 47.6748 30.43 45.1403 31.0014L45.1093 31.1876ZM49.3037 21.9494L49.2115 22.4962L50.3964 22.6969C50.9025 23.0337 52.0079 24.6277 53.7124 27.4789C53.702 27.5403 53.5495 27.7019 53.2547 27.9637C53.3968 28.0321 53.5444 28.0886 53.6959 28.1324L59.2167 27.0979L59.2312 27.0067C59.3347 26.3985 59.1889 25.9673 58.7939 25.7133L58.4294 25.6513C58.123 26.7249 57.1188 27.1176 55.4169 26.8293C54.9515 26.6257 53.8914 25.1332 52.2367 22.3518L52.2677 22.1695L52.7089 21.7749L52.3753 21.5315L49.3037 21.9494ZM49.6285 31.1013C50.6213 31.5202 51.066 32.0331 50.9626 32.64C50.3427 32.9736 49.8508 33.1093 49.4869 33.0472L49.1223 32.9852C49.0002 32.9645 48.6569 32.406 48.0926 31.3097C48.1405 31.0066 48.6508 30.9371 49.6236 31.1013H49.6285ZM51.6394 33.6028C53.3413 33.8911 54.1047 34.5517 53.9295 35.5846C53.0466 35.9977 52.4228 36.1735 52.0583 36.1121L51.238 35.9734C50.2271 34.9263 49.7578 34.1901 49.8302 33.7647C50.3072 33.5314 50.9102 33.4774 51.6394 33.6028ZM61.3895 19.7804C61.5718 19.8115 61.7486 20.0603 61.9199 20.527L61.7037 21.803C61.6927 21.8637 61.6281 21.8841 61.5098 21.8641L61.63 22.2597C61.5883 22.5021 61.4768 22.6087 61.2945 22.5777C58.5797 21.6178 57.2643 20.8948 57.3483 20.4087C56.232 20.7203 55.4311 20.8347 54.9457 20.752L54.8836 21.1165L55.0048 21.5121C55.2676 21.4316 55.4304 21.3967 55.4896 21.4064C59.5618 22.8459 61.5405 23.9002 61.4254 24.5692C62.0317 25.0475 62.3042 25.4677 62.2428 25.8297C62.1176 25.9437 62.0275 26.091 61.9829 26.2543L62.2253 26.4832C64.3041 26.0229 65.359 25.7014 65.39 25.5184C65.1467 25.4777 65.0361 25.3953 65.0565 25.2741L64.2963 25.3332L64.114 25.3022C63.9919 25.2822 63.5123 24.607 62.6752 23.2768L63.1386 20.5416C63.1994 20.177 63.4841 19.7875 63.9929 19.3732C64.0336 19.1308 63.9324 18.9886 63.6894 18.9466C62.2188 19.1366 61.4522 19.4136 61.3895 19.7775V19.7804ZM54.1283 29.4288C55.0979 29.5936 55.7957 30.0871 56.2217 30.9093C57.8273 33.2441 58.6395 34.5368 58.6582 34.7876C58.5612 34.984 58.4958 35.1944 58.4643 35.4111C59.1934 35.5339 61.1649 35.149 64.3787 34.2563C64.2798 33.3643 64.0481 32.8873 63.6836 32.8252C63.4677 34.1012 62.3262 34.5643 60.259 34.2146C58.837 32.2852 57.7975 30.6711 57.1408 29.3725L57.614 28.7956L57.264 28.6434C55.2046 28.9828 54.1593 29.2436 54.1283 29.4259V29.4288ZM61.885 27.9298L61.8539 28.1121L62.5841 28.2362C63.3132 28.359 64.6008 29.9837 66.4469 33.1103L66.1259 33.8995C66.4291 33.9506 68.239 33.6009 71.5556 32.8504L71.5866 32.6681C71.6797 32.1213 71.5291 31.7205 71.1348 31.4659L70.8604 31.4193C70.8304 31.6016 70.7538 31.683 70.6326 31.6617L70.7528 32.0573C70.7114 32.3003 69.9913 32.491 68.5925 32.6294L68.1369 32.5528C67.6308 32.216 67.1408 31.6019 66.667 30.7106L66.698 30.5283C66.74 30.2859 67.3541 30.1711 68.5402 30.1841L69.3304 30.505L69.3915 30.1404C69.1297 29.4714 68.9077 29.1214 68.7254 29.0904C67.6498 29.5332 66.8095 29.7032 66.2045 29.6004L66.0222 29.5693C65.9013 29.5487 65.4925 29.0105 64.7956 27.955C65.6683 27.6021 66.3173 27.4618 66.7426 27.5342L67.8091 27.9017C67.8615 27.6542 67.8504 27.3975 67.7766 27.1555C67.7028 26.9135 67.5689 26.6942 67.3873 26.5181C63.902 27.1134 62.0676 27.583 61.884 27.9269L61.885 27.9298Z" fill="white"/>
</svg>
