<svg width="68" height="70" viewBox="0 0 68 70" fill="none" xmlns="http://www.w3.org/2000/svg">
<path d="M9.19708 16.6006H33.1137C33.7151 16.6006 34.1963 16.1195 34.1963 15.518V7.3927C34.1963 6.79123 33.7151 6.31006 33.1137 6.31006H9.19708C8.59561 6.31006 8.11444 6.79123 8.11444 7.3927V15.5071C8.1035 16.1085 8.59561 16.6006 9.19708 16.6006ZM10.2797 8.48628H32.031V14.4354H10.2797V8.48628Z" fill="#4FC9EE"/>
<path d="M17.7486 21.8169H7.02063C6.41916 21.8169 5.93799 22.2981 5.93799 22.8995V32.1731C5.93799 32.7746 6.41916 33.2557 7.02063 33.2557H17.7486C18.3501 33.2557 18.8313 32.7746 18.8313 32.1731V22.8995C18.8313 22.309 18.3501 21.8169 17.7486 21.8169ZM16.6551 31.1014H8.10327V23.9931H16.6551V31.1014Z" fill="#4FC9EE"/>
<path d="M21.3467 24.9991C21.3467 25.6006 21.8279 26.0817 22.4293 26.0817H47.5051C48.1066 26.0817 48.5877 25.6006 48.5877 24.9991C48.5877 24.3976 48.1066 23.9164 47.5051 23.9164H22.4293C21.8279 23.9055 21.3467 24.3976 21.3467 24.9991Z" fill="#4FC9EE"/>
<path d="M22.4293 31.1777H40.7905C41.392 31.1777 41.8732 30.6966 41.8732 30.0951C41.8732 29.4936 41.392 29.0125 40.7905 29.0125H22.4293C21.8279 29.0125 21.3467 29.4936 21.3467 30.0951C21.3467 30.6966 21.8279 31.1777 22.4293 31.1777Z" fill="#4FC9EE"/>
<path d="M42.3762 38.5488H22.4293C21.8279 38.5488 21.3467 39.03 21.3467 39.6315C21.3467 40.2329 21.8279 40.7141 22.4293 40.7141H42.3762C42.9777 40.7141 43.4588 40.2329 43.4588 39.6315C43.4588 39.03 42.9777 38.5488 42.3762 38.5488Z" fill="#4FC9EE"/>
<path d="M22.4293 43.6558C21.8279 43.6558 21.3467 44.1369 21.3467 44.7384C21.3467 45.3399 21.8279 45.8211 22.4293 45.8211H34.8196C35.421 45.8211 35.9022 45.3399 35.9022 44.7384C35.9022 44.1369 35.421 43.6558 34.8196 43.6558H22.4293Z" fill="#4FC9EE"/>
<path d="M36.963 53.1917H22.4293C21.8279 53.1917 21.3467 53.6728 21.3467 54.2743C21.3467 54.8758 21.8279 55.3569 22.4293 55.3569H36.963C37.5645 55.3569 38.0456 54.8758 38.0456 54.2743C38.0456 53.6728 37.5645 53.1917 36.963 53.1917Z" fill="#4FC9EE"/>
<path d="M31.0795 58.2986H22.4293C21.8279 58.2986 21.3467 58.7798 21.3467 59.3812C21.3467 59.9827 21.8279 60.4639 22.4293 60.4639H31.0795C31.681 60.4639 32.1622 59.9827 32.1622 59.3812C32.1622 58.7798 31.681 58.2986 31.0795 58.2986Z" fill="#4FC9EE"/>
<path d="M17.7486 36.46H7.02063C6.41916 36.46 5.93799 36.9411 5.93799 37.5426V46.8162C5.93799 47.4176 6.41916 47.8988 7.02063 47.8988H17.7486C18.3501 47.8988 18.8313 47.4176 18.8313 46.8162V37.5426C18.8313 36.9521 18.3501 36.46 17.7486 36.46ZM16.6551 45.7444H8.10327V38.6362H16.6551V45.7444Z" fill="#4FC9EE"/>
<path d="M17.7486 51.103H7.02063C6.41916 51.103 5.93799 51.5842 5.93799 52.1857V61.4592C5.93799 62.0607 6.41916 62.5419 7.02063 62.5419H17.7486C18.3501 62.5419 18.8313 62.0607 18.8313 61.4592V52.1857C18.8313 51.5951 18.3501 51.103 17.7486 51.103ZM16.6551 60.3875H8.10327V53.2793H16.6551V60.3875Z" fill="#4FC9EE"/>
<path d="M10.8701 29.0563C11.0779 29.264 11.3513 29.3734 11.6356 29.3734C11.92 29.3734 12.2043 29.264 12.4011 29.0563L14.6102 26.8472C15.0367 26.4207 15.0367 25.7318 14.6102 25.3162C14.1837 24.8897 13.4947 24.8897 13.0792 25.3162L11.6356 26.7597L11.4935 26.6176C11.067 26.1911 10.378 26.1911 9.96245 26.6176C9.53595 27.0441 9.53595 27.733 9.96245 28.1486L10.8701 29.0563Z" fill="#4FC9EE"/>
<path d="M10.8701 44.0602C11.0779 44.2679 11.3513 44.3773 11.6356 44.3773C11.92 44.3773 12.2043 44.2679 12.4011 44.0602L14.6102 41.8511C15.0367 41.4246 15.0367 40.7357 14.6102 40.3201C14.1837 39.8936 13.4947 39.8936 13.0792 40.3201L11.6356 41.7636L11.4935 41.6215C11.067 41.195 10.378 41.195 9.96245 41.6215C9.53595 42.048 9.53595 42.7369 9.96245 43.1525L10.8701 44.0602Z" fill="#4FC9EE"/>
<path d="M65.6361 18.5034L59.8948 16.1084C59.184 15.8132 58.3966 15.8132 57.6858 16.0975C56.975 16.3927 56.4173 16.9395 56.122 17.6504L54.4269 21.6966L53.738 23.3479V14.8727C53.738 14.8508 53.7271 14.8399 53.7271 14.8289C53.7271 14.7196 53.7052 14.6212 53.6614 14.5227C53.6505 14.4899 53.6396 14.4571 53.6286 14.4243C53.574 14.3149 53.5193 14.2165 53.4318 14.129C53.4208 14.1181 53.4208 14.1072 53.4099 14.1072L39.6308 0.317138C39.6199 0.306202 39.5871 0.295266 39.5761 0.284331C39.4996 0.218716 39.4121 0.153101 39.3246 0.109358C39.2809 0.0874863 39.2481 0.0765505 39.2043 0.0656147C39.1168 0.0328073 39.0294 0.0218716 38.9419 0.0109358C38.92 0.0109358 38.8872 0 38.8653 0H5.25963C2.36164 0 -0.000488281 2.36213 -0.000488281 5.26012V64.7289C-0.000488281 67.6379 2.36164 70 5.27056 70H48.4669C51.3759 70 53.738 67.6379 53.738 64.7289V54.493L65.5049 26.3334L67.1999 22.2871C67.8014 20.8108 67.1015 19.1158 65.6361 18.5034ZM58.1232 18.4924C58.1998 18.3174 58.331 18.1753 58.506 18.1097C58.681 18.0441 58.8778 18.0331 59.0528 18.1097L64.7941 20.5046C65.155 20.6577 65.3299 21.0733 65.1768 21.4451L63.9083 24.4962L56.8438 21.5435L58.1232 18.4924ZM56.0126 23.5448L58.5388 24.6055L46.3345 53.815L43.8083 52.7543L56.0126 23.5448ZM46.4985 56.2428L49.4402 57.4676L43.9505 62.334L43.5568 55.018L46.4985 56.2428ZM50.8619 55.7069L48.3357 54.6461L60.5401 25.4257L63.0662 26.4865L50.8619 55.7069ZM50.0308 13.801H41.5664C40.6806 13.801 39.9589 13.0792 39.9589 12.1934V3.70723L50.0308 13.801ZM48.4669 67.8128H5.25963C3.55364 67.8128 2.1648 66.424 2.1648 64.718V5.26012C2.1648 3.56507 3.55364 2.17622 5.25963 2.17622H37.7717V12.1934C37.7717 14.2821 39.4668 15.9772 41.5555 15.9772H51.5508V28.5643L41.3805 52.9292C41.3696 52.9402 41.3805 52.962 41.3696 52.973C41.3259 53.0823 41.304 53.1917 41.304 53.312V53.3667V53.4104L41.9164 64.7071C41.9383 65.1226 42.2007 65.4944 42.5835 65.6476C42.7147 65.7022 42.8569 65.735 42.999 65.735C43.2615 65.735 43.513 65.6366 43.7208 65.4616L51.5727 58.4955V64.7289C51.5618 66.4349 50.1729 67.8128 48.4669 67.8128Z" fill="#4FC9EE"/>
</svg>
