<svg width="26" height="26" viewBox="0 0 26 26" fill="none" xmlns="http://www.w3.org/2000/svg">
<path d="M25.7905 13.1047C25.7905 19.5413 21.0747 24.8762 14.9101 25.8433V16.8323H17.9148L18.4866 13.1047H14.9101V10.6859C14.9101 9.66583 15.4098 8.67199 17.0117 8.67199H18.6377V5.49855C18.6377 5.49855 17.1618 5.24669 15.7509 5.24669C12.8056 5.24669 10.8804 7.03187 10.8804 10.2637V13.1047H7.60619V16.8323H10.8804V25.8433C4.71584 24.8762 0 19.5413 0 13.1047C0 5.98313 5.77365 0.209473 12.8953 0.209473C20.0169 0.209473 25.7905 5.98313 25.7905 13.1047Z" fill="white"/>
<path d="M17.9149 16.8322L18.4866 13.1046H14.9102V10.6857C14.9102 9.66593 15.4097 8.67189 17.0116 8.67189H18.6377V5.49844C18.6377 5.49844 17.162 5.24658 15.7511 5.24658C12.8056 5.24658 10.8804 7.03177 10.8804 10.2636V13.1046H7.6062V16.8322H10.8804V25.8432C11.5369 25.9462 12.2098 25.9999 12.8953 25.9999C13.5807 25.9999 14.2536 25.9462 14.9102 25.8432V16.8322H17.9149Z" fill="#00AFD7"/>
</svg>
