<svg width="98" height="116" viewBox="0 0 98 116" fill="none" xmlns="http://www.w3.org/2000/svg">
<path d="M87.273 52.4797V93.0287L80.6199 90.7896L73.967 93.0287V52.4797" stroke="#292929" stroke-width="8" stroke-miterlimit="10" stroke-linecap="round" stroke-linejoin="round"/>
<path d="M25.0276 52.4797V93.0287L18.3745 90.7896L11.7217 93.0287V52.4797" stroke="#292929" stroke-width="8" stroke-miterlimit="10" stroke-linecap="round" stroke-linejoin="round"/>
<path d="M68.9636 52.4798H94.0045V32.0905H60.365V4H38.3072V32.0905H4V52.4798H29.7126" stroke="#292929" stroke-width="8" stroke-miterlimit="10" stroke-linecap="round" stroke-linejoin="round"/>
<path d="M38.3071 59.2925V111.917H60.365V59.2945" stroke="#292929" stroke-width="8" stroke-miterlimit="10" stroke-linecap="round" stroke-linejoin="round"/>
<path d="M24.4142 32.0906C24.1598 33.5274 24.0266 35.0056 24.0266 36.5142C24.0266 50.471 35.3814 61.8259 49.3382 61.8259C63.295 61.8259 74.6499 50.471 74.6499 36.5142C74.6499 35.0056 74.5166 33.5274 74.2623 32.0906" stroke="#292929" stroke-width="8" stroke-miterlimit="10" stroke-linecap="round" stroke-linejoin="round"/>
<path d="M60.3609 32.0906C60.9103 33.4582 61.2155 34.95 61.2155 36.5142C61.2155 43.0739 55.8978 48.3916 49.3381 48.3916C42.7784 48.3916 37.4607 43.0739 37.4607 36.5142C37.4607 34.9503 37.7661 33.4582 38.3153 32.0906" stroke="#292929" stroke-width="8" stroke-miterlimit="10" stroke-linecap="round" stroke-linejoin="round"/>
</svg>
