<svg width="26" height="26" viewBox="0 0 26 26" fill="none" xmlns="http://www.w3.org/2000/svg">
<path d="M12.686 15.7495C14.1466 15.7495 15.3306 14.5655 15.3306 13.105C15.3306 11.6444 14.1466 10.4604 12.686 10.4604C11.2255 10.4604 10.0415 11.6444 10.0415 13.105C10.0415 14.5655 11.2255 15.7495 12.686 15.7495Z" fill="white"/>
<path d="M12.686 0.511719C5.73112 0.511719 0.0930176 6.14982 0.0930176 13.1047C0.0930176 20.0597 5.73112 25.6978 12.686 25.6978C19.641 25.6978 25.2791 20.0597 25.2791 13.1047C25.2791 6.14982 19.641 0.511719 12.686 0.511719ZM20.4664 16.3054C20.406 17.5026 20.0695 18.6833 19.197 19.5465C18.3161 20.4179 17.1299 20.7426 15.9211 20.8025H9.45105C8.24212 20.7426 7.05606 20.4181 6.1751 19.5465C5.30255 18.6833 4.96617 17.5026 4.90572 16.3054V9.9041C4.96617 8.70686 5.3026 7.52624 6.1751 6.66296C7.05606 5.79152 8.24227 5.46682 9.45105 5.40703H15.921C17.13 5.46682 18.316 5.79137 19.197 6.66296C20.0695 7.52624 20.4059 8.70686 20.4664 9.9041L20.4664 16.3054Z" fill="white"/>
<path d="M15.8392 6.86542C14.2633 6.8222 11.109 6.8222 9.53303 6.86542C8.71292 6.88794 7.7832 7.0921 7.19888 7.71621C6.5917 8.36495 6.36225 9.14874 6.33898 10.0256C6.29808 11.5645 6.33898 16.1837 6.33898 16.1837C6.36563 17.0604 6.5917 17.8443 7.19888 18.493C7.7832 19.1173 8.71292 19.3213 9.53303 19.3438C11.109 19.387 14.2633 19.387 15.8392 19.3438C16.6593 19.3213 17.589 19.1171 18.1734 18.493C18.7805 17.8443 19.01 17.0605 19.0333 16.1837V10.0256C19.01 9.14874 18.7805 8.36495 18.1734 7.71621C17.5888 7.0919 16.6591 6.88794 15.8392 6.86542ZM12.6859 17.2036C11.8752 17.2036 11.0827 16.9632 10.4086 16.5128C9.73453 16.0624 9.20915 15.4222 8.89891 14.6732C8.58866 13.9242 8.50749 13.1001 8.66565 12.3049C8.82381 11.5098 9.2142 10.7794 9.78746 10.2062C10.3607 9.6329 11.0911 9.24251 11.8862 9.08434C12.6814 8.92618 13.5055 9.00736 14.2545 9.3176C15.0035 9.62785 15.6437 10.1532 16.0941 10.8273C16.5445 11.5014 16.7849 12.2939 16.7849 13.1046C16.7849 14.1917 16.3531 15.2343 15.5844 16.0031C14.8157 16.7718 13.773 17.2036 12.6859 17.2036ZM16.8024 9.85168C16.6402 9.85164 16.4818 9.80353 16.347 9.71342C16.2122 9.62332 16.1071 9.49527 16.0451 9.34546C15.9831 9.19566 15.9669 9.03083 15.9985 8.87182C16.0302 8.7128 16.1083 8.56675 16.223 8.45212C16.3376 8.33748 16.4837 8.25942 16.6427 8.22781C16.8017 8.19619 16.9666 8.21244 17.1164 8.27449C17.2661 8.33655 17.3942 8.44163 17.4842 8.57644C17.5743 8.71125 17.6224 8.86974 17.6224 9.03188C17.6224 9.13955 17.6012 9.24617 17.56 9.34565C17.5187 9.44513 17.4583 9.53551 17.3822 9.61164C17.3061 9.68777 17.2157 9.74815 17.1162 9.78934C17.0167 9.83052 16.9101 9.85171 16.8024 9.85168Z" fill="white"/>
</svg>
