<svg width="26" height="26" viewBox="0 0 26 26" fill="none" xmlns="http://www.w3.org/2000/svg">
<path d="M13.0664 26C20.1883 26 25.9617 20.2266 25.9617 13.1047C25.9617 5.98288 20.1883 0.209473 13.0664 0.209473C5.94455 0.209473 0.171143 5.98288 0.171143 13.1047C0.171143 20.2266 5.94455 26 13.0664 26Z" fill="white"/>
<path d="M20.7712 14.1426V19.4591H17.6889V14.4989C17.6889 13.2535 17.2439 12.403 16.1279 12.403C15.2762 12.403 14.7702 12.9756 14.5468 13.53C14.4657 13.7282 14.4447 14.0033 14.4447 14.2812V19.4588H11.3622C11.3622 19.4588 11.4036 11.058 11.3622 10.1884H14.445V11.5021C14.4388 11.5125 14.43 11.5226 14.4245 11.5325H14.445V11.5021C14.8546 10.8718 15.5851 9.97072 17.223 9.97072C19.2509 9.97072 20.7712 11.2957 20.7712 14.1426ZM8.13757 5.71973C7.08315 5.71973 6.39331 6.41187 6.39331 7.32123C6.39331 8.21129 7.06315 8.92343 8.09711 8.92343H8.11711C9.19221 8.92343 9.86067 8.21129 9.86067 7.32123C9.84022 6.41187 9.19221 5.71973 8.13757 5.71973ZM6.57652 19.4591H9.65793V10.1884H6.57652V19.4591Z" fill="#00AFD7"/>
</svg>
