<svg width="134" height="137" viewBox="0 0 134 137" fill="none" xmlns="http://www.w3.org/2000/svg">
<path d="M54.4427 45.9198H64.1971C64.9169 45.9198 64.9458 45.9505 64.9467 46.6886C64.9467 47.6016 64.9467 48.5142 64.9467 49.4266C64.9467 50.2108 64.9131 50.2454 64.1404 50.2454H47.7568C46.6833 50.2454 45.6098 50.2588 44.5373 50.2454C44.0895 50.2377 43.9011 50.3972 43.9069 50.8595C43.9261 52.1847 43.9924 53.5004 44.128 54.8237C44.2317 55.8309 44.3057 56.8505 44.3865 57.8654C44.4893 59.1541 44.7247 60.4246 44.9246 61.6999C45.2562 63.8141 45.7694 65.8938 46.2883 67.9687C46.3777 68.3252 46.5046 68.6722 46.5997 69.0258C46.6949 69.3795 46.9649 69.2987 47.1763 69.2305C48.492 68.8125 49.848 68.5933 51.2031 68.3656C53.9439 67.9024 56.6982 67.5756 59.4679 67.3084C61.0757 67.1508 62.6902 67.1806 64.2913 66.9779C64.816 66.9115 64.9381 67.0269 64.9429 67.5362C64.9515 68.5453 64.9371 69.5544 64.9506 70.5635C64.9563 70.9777 64.7709 71.0843 64.374 71.1333C63.338 71.2631 62.2837 71.0882 61.2708 71.2525C59.6745 71.512 58.0533 71.4197 56.4656 71.7205C55.5911 71.8858 54.6685 71.8214 53.8026 72.0175C52.3505 72.3462 50.8513 72.4019 49.4155 72.8036C49.2618 72.8469 49.1032 72.8738 48.9465 72.9045C47.9019 73.1111 47.9134 73.1064 48.2844 74.125C48.8863 75.7953 49.5882 77.4278 50.3862 79.0138C51.178 80.6007 52.066 82.1377 53.0453 83.6162C54.0093 85.0251 55.0884 86.3517 56.2715 87.5823C56.9442 88.2916 57.7131 88.8874 58.5136 89.4544C59.8389 90.3972 61.2477 91.1603 62.8008 91.6648C63.337 91.8378 63.8886 91.9204 64.4345 92.0492C64.7718 92.1309 64.9467 92.2808 64.9467 92.6258C64.9467 93.6996 64.9467 94.7728 64.9467 95.8453C64.9467 96.1845 64.7987 96.3258 64.4393 96.2989C62.7835 96.1864 61.1324 96.0432 59.4833 95.8578C58.3368 95.728 57.2066 95.5156 56.0812 95.2965C54.9386 95.0736 53.8228 94.7132 52.6965 94.4114C50.3349 93.7733 48.036 92.9226 45.828 91.8695C44.2325 91.1314 42.6833 90.297 41.1891 89.3708C39.3062 88.1924 37.5024 86.8923 35.7891 85.4786C32.9812 83.1501 30.4116 80.5483 28.1181 77.7116C26.81 76.0762 25.6045 74.3613 24.5085 72.5768C23.0688 70.2518 21.861 67.791 20.9027 65.2297C20.0749 63.0642 19.4108 60.8396 18.9163 58.5746C18.602 57.0946 18.3935 55.5954 18.209 54.0828C17.9207 51.6936 17.8447 49.3045 17.8774 46.9067C17.8966 45.4229 18.0831 43.9487 18.2061 42.4706C18.3397 40.8551 18.6299 39.2694 18.947 37.6905C19.2374 36.2846 19.6071 34.8962 20.0542 33.5321C20.534 32.0393 21.0844 30.5753 21.7052 29.1402C22.259 27.8635 22.8798 26.6169 23.5648 25.4056C24.7344 23.3288 25.9972 21.3078 27.4964 19.4472C28.3767 18.3526 29.2762 17.2753 30.2257 16.2355C31.1752 15.1956 32.1545 14.1827 33.1799 13.2207C35.0058 11.5053 36.8962 9.86287 38.9893 8.46169C40.0003 7.78897 40.9969 7.08838 42.0435 6.47044C44.029 5.29798 46.1154 4.33311 48.2383 3.43935C50.0998 2.65707 52.0276 2.07757 53.9737 1.57207C55.5657 1.15679 57.1808 0.835885 58.8106 0.611042C60.1089 0.434213 61.413 0.340989 62.7114 0.186263C63.263 0.120913 63.8223 0.148785 64.374 0.0200065C64.7286 -0.061681 64.9506 0.107463 64.9506 0.514939C64.9439 1.60475 64.9506 2.69359 64.9506 3.78244C64.9506 4.10631 64.8055 4.26295 64.4787 4.33022C62.1578 4.84053 60.0887 5.88326 58.232 7.35267C55.2951 9.67932 53.03 12.5711 51.1857 15.8097C50.0604 17.7875 49.0484 19.8163 48.3027 21.9728C48.1979 22.2736 48.0595 22.5638 47.9288 22.856C47.7875 23.1712 47.9019 23.3279 48.2171 23.4096C49.7961 23.8122 51.3943 24.115 52.9963 24.4081C54.6935 24.7185 56.4137 24.8578 58.1157 25.1298C58.5907 25.1963 59.0692 25.2342 59.5486 25.2432C61.1122 25.3018 62.6614 25.5594 64.2288 25.544C64.8795 25.5373 64.9391 25.6036 64.9429 26.2609C64.9487 27.1893 64.9362 28.1186 64.9487 29.0479C64.9487 29.4323 64.8007 29.6044 64.4086 29.5947C62.6854 29.5515 60.9642 29.49 59.2507 29.269C58.3166 29.1488 57.3681 29.1575 56.4349 29.0133C54.2101 28.6722 51.9728 28.4156 49.7798 27.8822C48.9408 27.6785 48.0903 27.5208 47.2657 27.2633C46.8871 27.146 46.6507 27.2422 46.5286 27.6314C46.2605 28.4857 46.0567 29.3612 45.8395 30.2261C45.5368 31.4322 45.3235 32.6585 45.0525 33.8723C44.7882 35.0524 44.668 36.2672 44.5018 37.4685C44.3749 38.369 44.2702 39.2714 44.1558 40.1728C44.1442 40.2194 44.1371 40.2671 44.1347 40.315C44.2433 41.9315 43.7925 43.5201 43.9031 45.1394C43.955 45.9034 43.9357 45.9294 44.6882 45.9294C47.9404 45.9242 51.1918 45.921 54.4427 45.9198ZM39.7255 53.0468C39.86 52.2952 39.5467 51.6888 39.5775 51.0401C39.6149 50.2665 39.5631 50.2434 38.7654 50.2434H28.2412C26.3672 50.2434 24.4931 50.2434 22.6191 50.2434C22.081 50.2434 21.981 50.3453 22.0492 50.8114C22.3145 52.6258 22.3376 54.4633 22.7412 56.2701C23.0641 57.702 23.3601 59.1387 23.7368 60.5572C23.9011 61.1742 24.0857 61.7883 24.3057 62.3832C25.1696 64.7599 26.2214 67.0641 27.4512 69.2738C28.5362 71.2054 29.7951 73.0131 31.1367 74.7689C31.304 74.988 31.4587 75.0572 31.7422 74.9044C32.759 74.365 33.7908 73.8543 34.8377 73.3726C36.5233 72.5932 38.2493 71.931 39.9811 71.265C40.7442 70.9767 41.5312 70.7624 42.2933 70.4741C42.5249 70.3866 42.6335 70.2723 42.5519 70.007C42.3991 69.5198 42.2693 69.0239 42.13 68.5318C41.6427 66.8087 41.29 65.0519 40.9489 63.2971C40.6192 61.6047 40.4299 59.8864 40.18 58.1806C39.9196 56.4421 39.9475 54.6863 39.7255 53.0468ZM30.7879 45.9198C33.4929 45.9198 36.1985 45.9198 38.9047 45.9198C39.5361 45.9198 39.59 45.8669 39.59 45.2307C39.59 44.3658 39.7072 43.5085 39.7822 42.6532C39.9157 41.0666 39.9744 39.4741 40.205 37.8894C40.4549 36.1836 40.6855 34.4729 41.0209 32.7854C41.4419 30.6711 41.8859 28.5626 42.5201 26.4993C42.6162 26.1725 42.5317 26.0245 42.1867 25.913C40.822 25.4681 39.4506 25.0308 38.1177 24.5022C36.261 23.7661 34.4302 22.9646 32.6773 21.9978C31.3626 21.2703 31.3616 21.2895 30.4938 22.5043C29.3131 24.1354 28.235 25.8385 27.2657 27.6035C26.0561 29.8043 25.0391 32.1056 24.226 34.4816C23.7273 35.9488 23.3197 37.4454 23.0055 38.9629C22.7681 40.1334 22.4913 41.2962 22.3875 42.4947C22.3097 43.4019 22.2242 44.3081 22.1444 45.2144C22.0838 45.8986 22.0358 45.9198 22.721 45.9207C25.4055 45.9214 28.0928 45.921 30.7831 45.9198H30.7879ZM53.2885 6.27823C51.0158 6.91444 48.8107 7.77093 46.7045 8.83553C43.437 10.5029 40.3617 12.4625 37.592 14.9035C36.4993 15.8645 35.4633 16.8842 34.4062 17.8827C34.0833 18.1873 34.1246 18.3449 34.5023 18.5314C35.7939 19.1637 37.1144 19.7288 38.4425 20.2737C39.9974 20.9099 41.5879 21.4433 43.1775 21.9844C43.8627 22.2179 43.8569 22.2179 44.1597 21.4433C45.409 18.2507 46.8025 15.1351 48.6409 12.227C49.6164 10.6836 50.6591 9.19688 51.8815 7.84087C52.3499 7.31999 52.8173 6.79911 53.2837 6.27823H53.2885ZM53.277 90.0868C53.2529 89.8186 53.0636 89.7245 52.9377 89.5947C51.4884 88.0828 50.184 86.4383 49.0417 84.6829C48.171 83.3634 47.4079 81.9738 46.6699 80.5745C45.6742 78.6957 44.8737 76.7304 44.0914 74.7641C43.8992 74.2769 43.8166 74.2231 43.3149 74.4047C41.8445 74.9371 40.3425 75.3657 38.9009 75.9952C37.493 76.6064 36.0745 77.1898 34.7243 77.9221C34.2322 78.1892 34.189 78.2873 34.5897 78.6803C35.0875 79.1695 35.6065 79.6413 36.1149 80.1219C37.888 81.7902 39.7457 83.3461 41.785 84.68C42.7354 85.3008 43.6839 85.9294 44.6748 86.481C46.8726 87.7025 49.1455 88.7702 51.5356 89.5611C52.091 89.7466 52.6427 90.0205 53.2721 90.0868H53.277Z" fill="#1E1E1E"/>
<path d="M116.175 92.4143C116.271 92.496 116.368 92.5739 116.457 92.6613C120.56 96.6409 124.596 100.688 128.634 104.733C130.104 106.204 131.581 107.668 133.041 109.149C133.222 109.332 133.653 109.428 133.548 109.702C133.436 109.991 133.033 109.828 132.759 109.838C132.182 109.858 131.606 109.86 131.029 109.838C125.491 109.66 119.949 109.662 114.412 109.756C104.789 109.92 95.1663 109.731 85.5454 109.883C83.9501 109.909 82.3183 109.849 80.7259 110.201C78.3096 110.717 76.0266 111.728 74.0208 113.171C73.4759 113.565 72.9521 113.98 72.4447 114.42C72.4074 114.461 72.3607 114.493 72.3085 114.513C72.2563 114.532 72.2002 114.539 72.1448 114.532C71.1905 114.371 70.2228 114.467 69.2694 114.46C67.011 114.444 64.7526 114.378 62.4961 114.492C61.5283 114.541 60.895 114.191 60.2108 113.636C58.3512 112.124 56.2561 111.091 53.9285 110.451C52.3342 110.013 50.735 110.018 49.1234 109.97C40.0484 109.682 30.9685 109.978 21.8935 109.823C16.6415 109.734 11.3914 109.745 6.14034 109.761C4.28651 109.767 2.4298 109.846 0.57405 109.841C0.381844 109.841 0.101229 109.944 0.0156978 109.704C-0.0698339 109.464 0.215583 109.368 0.354933 109.23C2.59734 106.999 4.84295 104.771 7.09176 102.546C9.31655 100.335 11.5048 98.0854 13.7728 95.9202C14.9078 94.8371 16.0101 93.7233 17.1259 92.621C17.245 92.5037 17.344 92.3586 17.5257 92.325C17.5442 92.3663 17.5476 92.413 17.5351 92.4566C17.5226 92.5002 17.4951 92.538 17.4574 92.5633C16.5791 93.4897 15.7631 94.4709 14.9318 95.4396C13.4903 97.1243 12.017 98.7898 10.5707 100.474C9.22909 102.038 7.89711 103.611 6.57473 105.191C6.47863 105.302 6.27489 105.413 6.38252 105.588C6.49016 105.763 6.70447 105.684 6.87361 105.674C7.9711 105.583 9.05226 105.364 10.1536 105.274C11.871 105.134 13.5816 104.907 15.297 104.724C16.8347 104.561 18.3723 104.394 19.91 104.203C21.193 104.044 22.4846 103.963 23.7618 103.762C25.309 103.519 26.8765 103.457 28.4276 103.261C29.946 103.069 31.4769 102.973 32.9886 102.755C34.3514 102.563 35.7256 102.511 37.0826 102.304C39.3545 101.958 41.6494 101.818 43.9213 101.466C45.3552 101.244 46.8111 101.172 48.2459 100.961C49.4953 100.776 50.7533 100.596 52.0017 100.516C53.6498 100.409 55.3211 100.4 56.9692 100.759C60.1522 101.451 62.7633 103.043 64.8641 105.529C65.5464 106.336 66.0298 107.242 66.5171 108.159C66.5747 108.268 66.591 108.447 66.7275 108.457C66.888 108.469 66.9572 108.296 67.0158 108.174C67.9845 106.173 69.427 104.554 71.1752 103.227C72.4664 102.25 73.9228 101.513 75.4748 101.052C77.493 100.444 79.5553 100.379 81.611 100.526C83.0294 100.61 84.4414 100.78 85.8395 101.033C86.6083 101.18 87.3964 101.191 88.1739 101.284C89.3271 101.42 90.4803 101.608 91.6422 101.712C93.0098 101.835 94.3792 101.979 95.7304 102.182C97.3267 102.422 98.9451 102.419 100.536 102.746C101.389 102.922 102.281 102.906 103.152 103C104.899 103.192 106.642 103.398 108.387 103.589C109.942 103.759 111.5 103.903 113.055 104.082C115.035 104.31 117.008 104.632 118.993 104.781C120.73 104.913 122.437 105.261 124.183 105.33C124.976 105.358 125.764 105.528 126.554 105.634C126.649 105.655 126.745 105.67 126.842 105.68C126.982 105.68 127.167 105.743 127.248 105.616C127.344 105.474 127.179 105.349 127.095 105.247C126.891 105 126.654 104.782 126.449 104.537C125.257 103.117 124.009 101.75 122.823 100.325C121.584 98.8407 120.29 97.405 119.068 95.9038C118.22 94.864 117.302 93.8857 116.417 92.8737C116.304 92.7459 116.202 92.6085 116.096 92.4758L116.175 92.4143Z" fill="#1E1E1E"/>
<path d="M102.685 50.156H110.806C111.537 50.156 111.561 50.1877 111.569 50.9094C111.581 51.8897 111.339 52.8411 111.265 53.8127C111.161 55.1822 110.897 56.5324 110.626 57.8788C110.367 59.1656 109.964 60.414 109.581 61.6662C108.834 64.1034 107.767 66.4031 106.579 68.6548C105.417 70.8537 103.999 72.8834 102.525 74.8746C102.221 75.285 101.876 75.1879 101.558 74.99C100.494 74.3278 99.3478 73.8175 98.2234 73.2899C96.5644 72.4964 94.8568 71.8092 93.1107 71.2323C92.5475 71.0516 91.9901 70.8537 91.4279 70.6663C90.8657 70.4789 90.8148 70.3482 90.9801 69.7802C91.4539 68.1551 91.869 66.5127 92.1948 64.854C92.5206 63.1952 92.8022 61.5269 93.03 59.848C93.178 58.7562 93.3183 57.6664 93.4086 56.568C93.5662 54.5969 93.8295 52.6335 93.7834 50.6499C93.7728 50.1781 94.0717 50.1541 94.4215 50.1541C96.9683 50.1541 99.5147 50.1541 102.061 50.1541L102.685 50.156Z" fill="#1E1E1E"/>
<path d="M102.652 46.1131C99.9469 46.1131 97.2409 46.1131 94.534 46.1131C93.8113 46.1131 93.7806 46.0814 93.7815 45.351C93.7815 44.0729 93.6681 42.8043 93.5509 41.531C93.4269 40.1855 93.3904 38.8209 93.1742 37.485C92.9906 36.352 92.8859 35.2074 92.6552 34.0811C92.3429 32.5434 92.0613 31.0058 91.7288 29.4806C91.5116 28.4831 91.2213 27.5018 90.9715 26.511C90.8369 25.9767 90.9119 25.894 91.4405 25.7336C93.1712 25.2244 94.8718 24.6177 96.5339 23.9162C98.3599 23.1311 100.15 22.2959 101.916 21.3878C102.211 21.235 102.426 21.2917 102.624 21.5435C103.743 22.981 104.767 24.4898 105.691 26.0603C106.647 27.6867 107.504 29.3693 108.258 31.099C108.902 32.5982 109.411 34.1416 109.882 35.7033C110.305 37.1131 110.687 38.5297 110.907 39.9818C111.055 40.9563 111.274 41.9202 111.312 42.9177C111.341 43.725 111.549 44.5255 111.563 45.3414C111.576 46.0718 111.535 46.1103 110.816 46.1103C108.095 46.1135 105.374 46.1144 102.652 46.1131Z" fill="#1E1E1E"/>
<path d="M79.2719 46.1117H69.5184C68.8139 46.1117 68.7822 46.0781 68.7812 45.3823C68.7812 40.2895 68.7812 35.196 68.7812 30.1019C68.7812 29.4398 68.8274 29.3831 69.4905 29.3917C71.2674 29.4167 73.0463 29.3783 74.8069 29.1563C76.2783 28.9708 77.7563 28.8353 79.2276 28.6018C80.7403 28.3605 82.2462 28.0838 83.7445 27.8022C84.7286 27.6177 85.7127 27.3832 86.6824 27.1141C87.0168 27.018 87.1946 27.0939 87.282 27.437C87.5454 28.4749 87.8587 29.5013 88.0855 30.5478C88.3949 31.9827 88.6842 33.4242 88.9062 34.8725C89.2051 36.8263 89.4703 38.7829 89.5981 40.7636C89.6942 42.2782 89.8576 43.788 89.8413 45.3093C89.8326 46.0877 89.823 46.106 89.0234 46.1069L79.2719 46.1117Z" fill="#1E1E1E"/>
<path d="M79.2996 50.3137C82.6625 50.3137 86.0261 50.3137 89.3904 50.3137C89.6989 50.3137 89.845 50.4242 89.8382 50.725C89.8267 51.3017 89.9343 51.8783 89.721 52.4376C89.7019 52.4821 89.6943 52.5307 89.6989 52.5789C89.8353 53.3832 89.6028 54.1684 89.572 54.9622C89.5192 56.2068 89.4605 57.4426 89.2472 58.6795C89.0973 59.554 89.0415 60.4574 88.8762 61.3329C88.5879 62.8705 88.3381 64.414 87.9267 65.9276C87.6538 66.9299 87.3847 67.9333 87.1089 68.9347C87.0032 69.3191 86.8321 69.3844 86.4525 69.2941C84.4007 68.8011 82.3355 68.3878 80.2433 68.0851C77.5399 67.694 74.8356 67.3835 72.1082 67.2346C71.1366 67.1817 70.1688 67.0885 69.1953 67.1087C68.9358 67.1135 68.8109 66.9828 68.7965 66.7348C68.7888 66.5907 68.7869 66.4465 68.7869 66.3024C68.7869 61.2108 68.7869 56.1193 68.7869 51.0278C68.7869 50.3233 68.7869 50.3291 69.5057 50.3291C72.7732 50.3291 76.0407 50.3291 79.3082 50.3291L79.2996 50.3137Z" fill="#1E1E1E"/>
<path d="M68.7831 14.7718C68.7831 11.6657 68.7831 8.55838 68.7831 5.44977C68.7831 5.14609 68.7523 4.8424 68.7437 4.53872C68.735 4.25714 68.8302 4.13797 69.1521 4.20236C72.1313 4.79724 74.6031 6.30605 76.826 8.32326C78.4383 9.80596 79.862 11.4815 81.0651 13.312C81.9899 14.7137 82.8245 16.1729 83.5637 17.6808C84.3857 19.361 85.1156 21.0848 85.7501 22.8444C85.9509 23.3884 85.9423 23.4412 85.3772 23.5498C83.3398 23.9429 81.3284 24.4464 79.267 24.7386C78.1013 24.9049 76.9249 25.0029 75.7611 25.2057C74.9264 25.3344 74.0846 25.4118 73.2404 25.4373C71.9785 25.4997 70.7157 25.5276 69.4539 25.5536C68.8292 25.566 68.7812 25.5065 68.7812 24.8568C68.7812 21.4951 68.7818 18.1334 68.7831 14.7718Z" fill="#1E1E1E"/>
<path d="M68.7832 82.3823C68.7832 78.4363 68.7832 75.1534 68.7832 71.8705C68.7832 71.1075 68.8034 71.0546 69.5626 71.095C71.2684 71.1844 72.9743 71.2593 74.6782 71.414C75.9967 71.5332 77.3172 71.6505 78.6328 71.7985C79.8541 71.9211 81.0685 72.1052 82.2713 72.3501C83.2717 72.5615 84.2798 72.7345 85.2841 72.9267C85.7781 73.0228 85.8684 73.1593 85.6801 73.6119C84.9112 75.4571 84.1645 77.31 83.2246 79.0792C82.1348 81.131 80.9643 83.1367 79.5208 84.9559C78.259 86.5455 76.9039 88.0687 75.2548 89.2806C73.6489 90.4646 71.9364 91.4515 69.9845 91.9599C69.7212 92.0281 69.454 92.082 69.1907 92.1521C68.8447 92.2425 68.7198 92.0964 68.7323 91.76C68.8543 88.4128 68.739 85.0655 68.7832 82.3823Z" fill="#1E1E1E"/>
<path d="M79.9445 6.04297C80.7662 6.12177 81.5177 6.43795 82.2759 6.69839C84.5137 7.46598 86.6735 8.44421 88.7264 9.61992C90.9588 10.8991 93.125 12.281 95.0932 13.9628C96.5655 15.2208 98.008 16.4999 99.3371 17.9098C99.6437 18.2346 99.5908 18.3903 99.2198 18.5738C98.0349 19.1716 96.8442 19.7549 95.6045 20.2316C94.7991 20.5411 94.013 20.9043 93.2019 21.1926C92.1649 21.5607 91.1088 21.8788 90.0632 22.2229C89.7056 22.3411 89.5711 22.1268 89.4616 21.849C89.007 20.6881 88.5822 19.5137 88.0825 18.372C87.0888 16.1021 85.9682 13.8888 84.5872 11.8313C83.2869 9.89574 81.8598 8.04863 80.1742 6.41969C80.0771 6.32166 79.9358 6.24575 79.9445 6.04297Z" fill="#1E1E1E"/>
<path d="M80.0405 90.1857C80.1366 89.9042 80.3807 89.7052 80.5845 89.5053C82.1529 87.9802 83.4253 86.2148 84.6025 84.3936C86.293 81.7738 87.724 78.9955 88.8753 76.098C89.0675 75.6088 89.2779 75.1235 89.4702 74.6324C89.6057 74.2826 89.818 74.1884 90.1852 74.3057C92.1072 74.9207 94.0072 75.5762 95.8475 76.4017C96.9104 76.8822 97.9724 77.3627 99.0276 77.8576C99.609 78.1296 99.6321 78.2719 99.191 78.711C96.9335 80.957 94.5492 83.0443 91.8871 84.8165C89.8387 86.1814 87.6787 87.3709 85.43 88.3723C83.7674 89.1132 82.0318 89.6783 80.2942 90.2261C80.2533 90.2478 80.2064 90.2557 80.1606 90.2484C80.1149 90.2411 80.0727 90.2191 80.0405 90.1857Z" fill="#1E1E1E"/>
<path d="M61.0027 133.643C61.0027 132.907 61.0152 132.171 60.9979 131.433C60.9883 131.017 61.1671 130.835 61.5745 130.874C61.9128 130.906 62.329 130.718 62.5029 131.233C62.5529 131.382 62.6951 131.243 62.7797 131.191C63.8762 130.549 64.5662 130.606 65.5474 131.448C65.7589 131.629 65.8896 131.524 66.0404 131.391C66.5286 130.958 67.0889 130.732 67.752 130.771C68.6948 130.828 69.3973 131.404 69.4483 132.337C69.5175 133.598 69.4809 134.865 69.4905 136.129C69.4905 136.34 69.3944 136.461 69.1753 136.46C69.1273 136.46 69.0792 136.46 69.0312 136.46C68.0452 136.492 68.0461 136.492 68.0442 135.499C68.0442 134.747 68.0509 133.994 68.0307 133.243C68.0106 132.491 67.754 132.17 67.2264 132.133C66.6497 132.091 66.1327 132.508 66.0654 133.177C65.9982 133.847 66.027 134.523 66.0145 135.196C66.0145 135.308 66.0145 135.419 66.0145 135.532C66.0145 136.468 66.0078 136.455 65.0842 136.469C64.6883 136.476 64.5557 136.344 64.5537 135.947C64.5537 135.02 64.6287 134.09 64.497 133.166C64.3894 132.414 64.1395 132.131 63.6014 132.131C63.017 132.131 62.5288 132.575 62.4904 133.238C62.4433 134.051 62.4625 134.872 62.4558 135.685C62.45 136.38 61.8081 136.748 61.1969 136.406C60.9883 136.289 61.0143 136.084 61.0123 135.896C61.0123 135.145 61.0123 134.392 61.0123 133.64L61.0027 133.643Z" fill="#1E1E1E"/>
<path d="M45.4435 122.282C45.4435 121.225 45.4435 120.168 45.4435 119.116C45.4435 118.545 45.5041 118.479 46.0864 118.489C46.6688 118.5 47.2397 118.519 47.8086 118.585C49.4356 118.778 50.1151 120.328 49.1646 121.661C49.0166 121.867 49.0195 121.987 49.23 122.123C50.1487 122.717 50.3419 123.583 50.042 124.558C49.7422 125.534 48.9849 125.978 48.0095 126.041C47.3089 126.086 46.6035 126.057 45.8952 126.067C45.531 126.067 45.4349 125.863 45.4368 125.543C45.4435 124.458 45.4435 123.368 45.4435 122.282ZM46.9004 123.698C46.9004 124.571 46.9302 124.618 47.4847 124.622C48.2805 124.626 48.6947 124.333 48.6937 123.778C48.6928 123.222 48.17 122.817 47.4261 122.817C46.9437 122.816 46.9004 122.888 46.9004 123.698ZM46.9004 120.643C46.9004 121.333 46.9639 121.442 47.3473 121.443C47.8077 121.443 48.1796 121.117 48.1873 120.703C48.195 120.29 47.7952 119.935 47.3137 119.944C46.7572 119.955 46.9543 120.389 46.9014 120.643H46.9004Z" fill="#1E1E1E"/>
<path d="M53.8151 122.152C53.8151 121.081 53.8256 120.008 53.8093 118.937C53.8035 118.523 53.9054 118.329 54.3782 118.349C55.2557 118.385 55.2576 118.358 55.2576 119.245C55.2576 119.693 55.2576 120.141 55.2576 120.591C55.2576 120.861 55.2941 121.002 55.5997 120.789C57.1691 119.691 59.2401 120.693 59.5255 122.586C59.6889 123.663 59.562 124.655 58.7125 125.456C57.8351 126.281 56.6722 126.417 55.6305 125.784C55.4527 125.677 55.3787 125.592 55.2095 125.864C54.9597 126.268 54.4849 126.068 54.1091 126.037C53.7843 126.01 53.8208 125.7 53.8208 125.466C53.8122 124.361 53.816 123.257 53.8151 122.152ZM56.6424 124.814C57.5458 124.824 58.1714 124.167 58.1676 123.213C58.1676 122.381 57.5006 121.693 56.6972 121.689C56.3022 121.695 55.9249 121.854 55.6446 122.132C55.3643 122.411 55.2028 122.787 55.1941 123.182C55.1826 124.126 55.7842 124.804 56.6424 124.81V124.814Z" fill="#1E1E1E"/>
<path d="M89.8536 132.594C89.8536 133.651 89.8536 134.708 89.8536 135.766C89.8536 136.007 89.9497 136.352 89.6133 136.417C89.2366 136.491 88.7724 136.633 88.4803 136.304C88.2698 136.066 88.1612 136.144 87.9728 136.247C86.3862 137.112 84.7361 136.267 84.2364 134.705C83.8654 133.544 84.0374 132.419 84.9418 131.5C85.3297 131.1 85.8429 130.845 86.3959 130.778C86.9489 130.711 87.5082 130.835 87.9805 131.131C88.4111 131.406 88.4091 131.208 88.4063 130.871C88.4005 130.36 88.4236 129.847 88.4063 129.333C88.3899 128.892 88.5831 128.715 89.0098 128.757C89.1214 128.765 89.2335 128.765 89.3452 128.757C89.7575 128.736 89.8622 128.969 89.8593 129.333C89.8517 130.422 89.8593 131.51 89.8593 132.601L89.8536 132.594ZM85.5289 133.63C85.5289 134.56 86.1546 135.254 86.9955 135.264C87.8364 135.274 88.488 134.562 88.488 133.601C88.488 132.756 87.8518 132.13 86.9897 132.127C86.1507 132.124 85.5241 132.769 85.5261 133.63H85.5289Z" fill="#1E1E1E"/>
<path d="M70.8052 132.594C70.8052 131.506 70.8225 130.418 70.7975 129.326C70.785 128.792 71.0752 128.732 71.4962 128.742C72.1689 128.756 72.2391 128.789 72.2448 129.319C72.2516 129.895 72.2391 130.472 72.2285 131.049C72.2285 131.258 72.2121 131.412 72.5062 131.254C74.5619 130.159 76.3945 131.175 76.5637 133.504C76.68 135.096 75.4623 136.857 73.4884 136.555C73.174 136.497 72.8727 136.383 72.5985 136.218C72.4966 136.162 72.3842 136.026 72.2698 136.195C71.9363 136.682 71.4587 136.436 71.0445 136.414C70.7783 136.4 70.8091 136.109 70.8081 135.907C70.8023 134.804 70.8052 133.701 70.8052 132.594ZM73.6547 135.205C74.5571 135.205 75.1173 134.602 75.127 133.623C75.1336 133.427 75.1003 133.232 75.0292 133.049C74.958 132.866 74.8504 132.699 74.7128 132.559C74.5753 132.419 74.4108 132.309 74.2292 132.234C74.0476 132.16 73.8528 132.123 73.6566 132.126C72.7724 132.126 72.1689 132.739 72.1718 133.645C72.1756 134.625 72.7301 135.208 73.6547 135.208V135.205Z" fill="#1E1E1E"/>
<path d="M45.8107 132.786C45.8107 130.937 46.6756 129.671 48.3344 129.008C49.7865 128.432 51.77 128.869 52.8281 129.992C53.0088 130.185 53.03 130.344 52.8416 130.525C52.7272 130.635 52.5917 130.728 52.4879 130.848C52.215 131.162 51.9699 131.181 51.6374 130.895C51.3603 130.65 51.0375 130.463 50.6876 130.344C50.3378 130.225 49.9678 130.176 49.5991 130.201C48.9757 130.222 48.3849 130.485 47.951 130.933C47.517 131.381 47.2738 131.98 47.2724 132.603C47.2513 134.045 48.1374 135.064 49.5049 135.191C49.8967 135.231 50.2927 135.188 50.6661 135.062C51.0396 134.937 51.382 134.734 51.6701 134.465C51.9584 134.21 52.1439 134.205 52.4168 134.5C53.1068 135.242 53.1213 135.229 52.2986 135.832C50.2228 137.353 47.2571 136.697 46.1557 134.481C45.9012 133.954 45.7826 133.371 45.8107 132.786Z" fill="#1E1E1E"/>
<path d="M59.6609 133.757C59.6609 134.493 59.6523 135.228 59.6609 135.967C59.6667 136.326 59.5533 136.524 59.1631 136.47C58.8066 136.421 58.3885 136.61 58.1406 136.152C58.0791 136.038 57.9061 136.176 57.8004 136.234C55.886 137.306 53.8957 135.766 53.8803 133.841C53.8727 132.887 54.0725 132.041 54.8414 131.394C55.7121 130.663 56.7923 130.558 57.7715 131.147C57.9638 131.26 58.0685 131.4 58.2732 131.067C58.5087 130.682 59.0036 130.875 59.3832 130.917C59.6763 130.949 59.6484 131.241 59.6513 131.458C59.6667 132.222 59.6609 132.99 59.6609 133.757ZM55.3363 133.651C55.3363 134.593 55.9754 135.267 56.8672 135.254C57.5861 135.243 58.2761 134.485 58.2771 133.702C58.2771 132.802 57.662 132.141 56.8144 132.129C55.9312 132.113 55.3421 132.722 55.3421 133.651H55.3363Z" fill="#1E1E1E"/>
<path d="M109.96 81.1791C112.672 81.2079 114.557 83.1809 114.6 85.6959C114.646 88.3868 112.593 90.4588 109.875 90.4299C107.384 90.404 105.296 88.3051 105.323 85.7526C105.331 84.5311 105.825 83.3631 106.694 82.5054C107.564 81.6477 108.739 81.1706 109.96 81.1791ZM113.773 85.792C113.709 83.5595 112.133 81.993 109.96 81.9844C107.663 81.9757 106.155 83.7402 106.125 85.791C106.093 87.9303 107.8 89.5765 109.949 89.616C111.962 89.6544 113.762 87.9678 113.773 85.792Z" fill="#1E1E1E"/>
<path d="M99.2036 133.72C99.2036 134.489 99.1911 135.258 99.2094 136.027C99.2171 136.337 99.1133 136.494 98.8029 136.462C98.4329 136.425 97.9956 136.634 97.74 136.146C97.6679 136.01 97.5084 136.157 97.4065 136.218C95.7439 137.227 93.5739 136.067 93.4826 133.967C93.4509 133.234 93.5182 132.534 93.9525 131.904C94.7291 130.778 96.1562 130.445 97.3402 131.13C97.5324 131.243 97.6544 131.425 97.8793 131.06C98.1042 130.695 98.6155 130.861 98.9932 130.923C99.3122 130.974 99.2238 131.284 99.2228 131.519C99.2228 132.254 99.2228 132.989 99.2228 133.724L99.2036 133.72ZM97.8293 133.667C97.8293 132.742 97.2527 132.129 96.3724 132.129C95.4921 132.129 94.879 132.779 94.8761 133.713C94.8761 134.498 95.593 135.256 96.3446 135.262C97.1874 135.269 97.8255 134.582 97.8293 133.667Z" fill="#1E1E1E"/>
<path d="M39.0932 123.679C38.5329 123.679 37.9716 123.672 37.4123 123.679C36.9376 123.688 36.8491 123.856 37.0779 124.276C37.4085 124.881 38.4589 125.18 39.1729 124.738C39.714 124.403 40.1147 124.532 40.5885 124.772C40.9076 124.934 40.8893 125.094 40.6683 125.316C39.9437 126.045 39.0432 126.234 38.062 126.159C36.6464 126.049 35.6257 125.057 35.4672 123.645C35.3028 122.212 36.0553 120.869 37.3739 120.51C39.4093 119.954 41.0585 120.92 41.3016 123.042C41.3593 123.553 41.2487 123.666 40.725 123.673C40.1801 123.679 39.6361 123.673 39.0912 123.673L39.0932 123.679ZM38.3858 122.519C38.7039 122.519 39.023 122.519 39.3411 122.519C39.466 122.519 39.615 122.519 39.665 122.373C39.7149 122.227 39.6063 122.135 39.5227 122.04C38.9653 121.41 37.8255 121.413 37.2499 122.046C37.1634 122.142 37.0577 122.238 37.1057 122.378C37.1538 122.519 37.3056 122.519 37.4306 122.52C37.7487 122.524 38.0677 122.52 38.3858 122.519Z" fill="#1E1E1E"/>
<path d="M66.6199 123.681C66.0433 123.681 65.4667 123.672 64.89 123.681C64.4095 123.689 64.3269 123.866 64.5835 124.275C65.015 124.962 65.9626 125.193 66.7516 124.717C67.1917 124.449 67.5338 124.485 67.9432 124.717C68.4189 124.983 68.443 125.061 68.0393 125.424C66.8698 126.491 64.6632 126.418 63.6695 125.279C62.5576 124.003 62.7085 121.986 64.028 120.946C64.989 120.185 66.1009 120.189 67.1677 120.629C68.2902 121.093 68.7351 122.071 68.8014 123.245C68.8197 123.589 68.665 123.691 68.343 123.683C67.7664 123.666 67.1898 123.678 66.6132 123.678L66.6199 123.681ZM65.8713 122.516C66.2047 122.516 66.5382 122.525 66.8717 122.516C67.16 122.504 67.2407 122.37 67.0725 122.113C66.5978 121.39 65.1678 121.384 64.6863 122.104C64.5287 122.339 64.5595 122.501 64.8699 122.514C65.2033 122.526 65.5368 122.516 65.8713 122.516Z" fill="#1E1E1E"/>
<path d="M29.4789 122.179C29.4789 121.075 29.4933 119.969 29.4712 118.867C29.4625 118.475 29.5673 118.331 29.9805 118.351C30.9348 118.394 30.8628 118.273 30.8618 119.24C30.8618 119.672 30.8618 120.105 30.8618 120.536C30.8618 120.887 31.0059 120.929 31.2673 120.741C31.6601 120.455 32.1395 120.314 32.6243 120.341C33.5854 120.389 34.2898 120.978 34.3542 121.941C34.4349 123.185 34.3926 124.435 34.3993 125.683C34.3993 125.94 34.2485 126.057 34.0034 126.068C33.8439 126.068 33.6834 126.068 33.5229 126.075C33.1385 126.097 32.9559 125.928 32.9655 125.54C32.9789 125.012 32.952 124.483 32.9982 123.957C33.0243 123.478 33.0011 122.998 32.929 122.523C32.8809 122.121 32.6541 121.831 32.263 121.726C31.8718 121.62 31.5374 121.776 31.2789 122.075C30.931 122.476 30.882 122.978 30.8695 123.475C30.8512 124.195 30.8503 124.916 30.8695 125.634C30.8801 125.957 30.8099 126.092 30.4524 126.088C29.475 126.077 29.475 126.088 29.475 125.109C29.475 124.131 29.4798 123.156 29.4789 122.179Z" fill="#1E1E1E"/>
<path d="M97.4353 123.681C96.8587 123.681 96.2821 123.671 95.7055 123.681C95.2538 123.692 95.173 123.861 95.4027 124.258C95.815 124.969 96.7933 125.177 97.6035 124.725C98.0917 124.453 98.601 124.504 99.045 124.854C99.1738 124.957 99.1959 125.054 99.0989 125.177C99.0301 125.265 98.9553 125.349 98.8749 125.427C97.7928 126.449 95.7996 126.432 94.6522 125.392C93.595 124.431 93.4768 122.586 94.4052 121.403C95.2365 120.346 96.4868 120.138 97.8063 120.538C98.8721 120.861 99.6582 122.093 99.6438 123.22C99.639 123.555 99.4727 123.675 99.1632 123.673C98.5866 123.673 98.01 123.673 97.4334 123.673L97.4353 123.681ZM96.7242 122.518C97.0595 122.518 97.3969 122.527 97.7323 122.518C97.9831 122.508 98.0936 122.395 97.936 122.145C97.467 121.403 96.0274 121.384 95.5334 122.112C95.3739 122.349 95.3951 122.509 95.7141 122.52C96.0524 122.526 96.3888 122.518 96.7251 122.518H96.7242Z" fill="#1E1E1E"/>
<path d="M74.6714 126.184C73.744 126.246 73.053 125.78 72.5312 124.985C72.339 124.691 72.2996 124.467 72.6753 124.303C72.7931 124.252 72.9036 124.186 73.004 124.106C73.3557 123.826 73.5998 123.893 73.8612 124.265C74.1957 124.745 74.6512 124.88 75.0664 124.723C75.5527 124.54 75.6901 124.131 75.4181 123.691C75.1759 123.299 74.7867 123.062 74.4571 122.759C74.0938 122.422 73.7152 122.101 73.3644 121.751C72.6273 121.016 72.4505 120.157 72.8599 119.406C73.3058 118.588 74.2572 118.196 75.2557 118.416C75.8458 118.546 76.2878 118.906 76.6915 119.327C76.7347 119.372 76.7953 119.436 76.7876 119.486C76.7482 119.946 76.3071 120.079 76.0495 120.364C75.8756 120.556 75.6987 120.416 75.5565 120.274C75.3153 120.034 75.076 119.793 74.6916 119.825C74.4773 119.84 74.2687 119.878 74.1592 120.087C74.0496 120.297 74.1592 120.504 74.3062 120.65C74.6262 120.963 74.9693 121.251 75.3009 121.551C75.6324 121.851 75.9736 122.143 76.2926 122.457C77.0009 123.16 77.2393 124.152 76.8693 124.956C76.456 125.867 75.6978 126.219 74.6714 126.184Z" fill="#1E1E1E"/>
<path d="M80.747 120.37C82.3327 120.282 83.6945 121.523 83.7868 123.13C83.8071 123.51 83.7519 123.891 83.6244 124.25C83.4969 124.61 83.2995 124.94 83.0438 125.222C82.788 125.505 82.4789 125.734 82.1342 125.897C81.7895 126.059 81.416 126.152 81.0353 126.17C79.4016 126.248 78.0331 125.052 77.9283 123.479C77.8053 121.638 79.4016 120.293 80.747 120.37ZM80.8085 124.817C81.6859 124.823 82.3183 124.174 82.3289 123.256C82.3395 122.338 81.7186 121.71 80.8133 121.694C80.0291 121.681 79.3901 122.367 79.3804 123.237C79.3679 124.163 79.9561 124.81 80.8095 124.817H80.8085Z" fill="#1E1E1E"/>
<path d="M80.2664 136.565C78.6086 136.565 77.4304 135.367 77.4275 133.672C77.4275 132.028 78.6643 130.771 80.2894 130.77C81.9395 130.77 83.2283 132.043 83.2254 133.673C83.2235 135.381 82.0078 136.564 80.2664 136.565ZM81.7685 133.662C81.779 132.751 81.2197 132.139 80.3625 132.124C79.4899 132.113 78.846 132.759 78.8248 133.67C78.8046 134.535 79.437 135.226 80.2818 135.252C81.1265 135.278 81.7569 134.594 81.7704 133.662H81.7685Z" fill="#1E1E1E"/>
<path d="M36.8057 133.706C36.8057 132.986 36.7999 132.264 36.8057 131.547C36.8057 131.318 36.7432 130.998 37.0344 130.927C37.4131 130.836 37.9061 130.701 38.1675 131.024C38.4289 131.346 38.5778 131.186 38.7902 131.07C39.7157 130.56 40.6988 130.705 41.3619 131.442C41.6839 131.799 41.7723 132.239 41.78 132.691C41.8002 133.778 41.7857 134.866 41.7934 135.953C41.7934 136.317 41.6387 136.486 41.2725 136.466C41.0976 136.456 40.9208 136.466 40.7449 136.459C40.3826 136.452 40.3528 136.196 40.3519 135.925C40.3519 135.142 40.3519 134.358 40.3442 133.574C40.3446 133.351 40.3266 133.128 40.2904 132.907C40.2183 132.495 40.0136 132.185 39.5552 132.146C39.0968 132.107 38.7335 132.273 38.5125 132.681C38.326 133.056 38.2359 133.471 38.2501 133.888C38.2501 134.577 38.2395 135.264 38.2501 135.952C38.2501 136.319 38.0896 136.456 37.7283 136.47C36.8028 136.503 36.8028 136.514 36.8028 135.58V134.619C36.8047 134.314 36.8047 134.01 36.8057 133.706Z" fill="#1E1E1E"/>
<path d="M104.075 120.485C104.538 120.371 104.777 120.662 104.951 121.126C105.239 121.904 105.578 122.664 105.9 123.432C105.947 123.543 105.949 123.721 106.114 123.713C106.239 123.708 106.258 123.556 106.307 123.457C106.68 122.644 107.051 121.829 107.421 121.013C107.628 120.559 108.504 120.266 108.932 120.517C109.173 120.658 108.989 120.831 108.925 120.97C108.365 122.208 107.793 123.442 107.227 124.678C106.776 125.666 106.331 126.659 105.877 127.647C105.699 128.031 104.699 128.302 104.37 128.056C104.209 127.935 104.307 127.791 104.363 127.672C104.605 127.149 104.844 126.624 105.11 126.115C105.189 125.977 105.234 125.822 105.239 125.663C105.245 125.505 105.213 125.347 105.144 125.204C104.583 123.879 104.033 122.548 103.497 121.212C103.202 120.485 103.215 120.478 104.075 120.485Z" fill="#1E1E1E"/>
<path d="M87.8643 120.378C88.6148 120.327 89.3414 120.609 89.968 121.169C90.3524 121.511 90.3236 121.596 89.9151 121.869C89.4759 122.163 89.1146 122.236 88.6216 121.896C87.9902 121.462 87.0138 121.651 86.4919 122.184C86.2599 122.431 86.1121 122.746 86.0698 123.082C86.0275 123.418 86.0929 123.759 86.2565 124.056C86.6909 124.864 87.9325 125.1 88.8003 124.543C88.9541 124.446 89.0886 124.236 89.3039 124.363C89.621 124.546 89.942 124.733 90.1881 125.01C90.2573 125.087 90.164 125.185 90.1025 125.26C89.3049 126.241 87.1291 126.493 85.9538 125.741C84.7294 124.957 84.2633 123.312 84.8966 122.016C85.43 120.929 86.3968 120.377 87.8643 120.378Z" fill="#1E1E1E"/>
<path d="M25.8318 123.007C25.8318 122.175 25.8202 121.343 25.8318 120.508C25.8385 120.111 25.7049 119.925 25.2792 119.923C24.5526 119.923 24.2528 119.42 24.5171 118.727C24.5968 118.519 24.7631 118.489 24.9428 118.488C26.0153 118.488 27.0878 118.488 28.1594 118.488C28.5015 118.488 28.6591 118.65 28.6399 118.992C28.6322 119.136 28.6322 119.28 28.6399 119.423C28.662 119.798 28.4736 119.922 28.1171 119.935C27.2954 119.963 27.2935 119.974 27.2925 120.81C27.2925 122.362 27.2925 123.915 27.2925 125.467C27.2925 126.028 27.231 126.074 26.5833 126.076C25.901 126.076 25.8337 126.028 25.8298 125.458C25.8279 124.64 25.8318 123.823 25.8318 123.007Z" fill="#1E1E1E"/>
<path d="M100.884 123.842C100.884 123.282 100.884 122.722 100.884 122.163C100.884 121.893 100.82 121.687 100.499 121.664C100.133 121.637 100.137 121.358 100.14 121.1C100.143 120.841 100.097 120.523 100.497 120.485C100.812 120.457 100.882 120.259 100.882 119.988C100.882 119.635 100.894 119.284 100.882 118.931C100.871 118.554 101.053 118.43 101.412 118.435C102.308 118.445 102.323 118.449 102.325 119.344C102.325 119.568 102.335 119.793 102.325 120.017C102.308 120.305 102.389 120.474 102.709 120.487C103.212 120.505 103.094 120.899 103.111 121.2C103.128 121.501 103.042 121.7 102.685 121.676C102.329 121.652 102.317 121.882 102.319 122.15C102.327 123.239 102.327 124.329 102.319 125.418C102.319 126.025 102.24 126.082 101.55 126.077C100.937 126.077 100.885 126.026 100.878 125.43C100.878 124.903 100.878 124.373 100.878 123.847L100.884 123.842Z" fill="#1E1E1E"/>
<path d="M61.9876 122.144C61.9876 123.248 61.9876 124.354 61.9876 125.458C61.9876 126.02 61.9204 126.071 61.2813 126.074C60.6182 126.074 60.5442 126.029 60.5432 125.492C60.5432 123.282 60.5432 121.071 60.5432 118.861C60.5432 118.468 60.6835 118.33 61.0862 118.346C61.9934 118.38 61.9944 118.362 61.9934 119.26L61.9876 122.144Z" fill="#1E1E1E"/>
<path d="M51.1962 123.236C51.1962 122.467 51.2058 121.698 51.1905 120.934C51.1837 120.605 51.3039 120.486 51.6354 120.477C52.6464 120.446 52.6464 120.434 52.6464 121.428C52.6464 122.755 52.6464 124.082 52.6464 125.409C52.6464 125.637 52.7127 125.943 52.409 126.023C52.0573 126.119 51.6748 126.151 51.3346 125.975C51.1587 125.883 51.2029 125.662 51.202 125.494C51.1943 124.739 51.1962 123.987 51.1962 123.236Z" fill="#1E1E1E"/>
<path d="M91.3808 123.255C91.3808 122.502 91.3914 121.751 91.376 120.998C91.3683 120.614 91.5048 120.422 91.9094 120.477C92.0528 120.491 92.1971 120.493 92.3409 120.484C92.685 120.473 92.833 120.641 92.832 120.98C92.8282 122.518 92.8282 124.054 92.832 125.588C92.832 125.936 92.6686 126.084 92.3313 126.069C92.1881 126.063 92.043 126.062 91.8998 126.069C91.5365 126.087 91.3741 125.921 91.3789 125.554C91.3885 124.786 91.3789 124.017 91.3789 123.248L91.3808 123.255Z" fill="#1E1E1E"/>
<path d="M34.1898 133.645C34.1898 132.894 34.1975 132.141 34.1898 131.39C34.1841 131.022 34.3475 130.858 34.7088 130.873C34.8693 130.879 35.0288 130.873 35.1893 130.873C35.4776 130.873 35.6381 131.007 35.6381 131.306C35.6381 132.859 35.6381 134.412 35.6381 135.963C35.6381 136.295 35.4863 136.472 35.1403 136.457C34.9966 136.45 34.8525 136.45 34.7088 136.457C34.3417 136.478 34.187 136.311 34.1918 135.944C34.2033 135.175 34.1918 134.406 34.1918 133.638L34.1898 133.645Z" fill="#1E1E1E"/>
<path d="M91.0781 133.689C91.0781 132.92 91.0897 132.151 91.0781 131.383C91.0676 130.84 91.4318 130.871 91.7941 130.867C92.1564 130.864 92.4514 130.872 92.4668 131.375C92.5226 132.894 92.512 134.411 92.4668 135.929C92.4553 136.321 92.2967 136.487 91.9142 136.462C91.7862 136.454 91.6578 136.454 91.5298 136.462C91.1906 136.482 91.0435 136.359 91.057 135.988C91.0849 135.219 91.0656 134.45 91.0656 133.681L91.0781 133.689Z" fill="#1E1E1E"/>
<path d="M35.8112 129.573C35.8077 129.815 35.7084 130.046 35.5351 130.215C35.3618 130.384 35.1287 130.477 34.8867 130.475C34.3985 130.475 34.0006 130.046 34.0112 129.528C34.0126 129.413 34.0368 129.298 34.0826 129.192C34.1283 129.086 34.1947 128.99 34.2778 128.909C34.3609 128.829 34.4591 128.766 34.5667 128.724C34.6744 128.681 34.7893 128.661 34.9049 128.663C35.0248 128.661 35.1438 128.684 35.2548 128.729C35.3658 128.774 35.4666 128.841 35.5512 128.926C35.6358 129.011 35.7024 129.112 35.7471 129.223C35.7917 129.334 35.8135 129.454 35.8112 129.573Z" fill="#1E1E1E"/>
<path d="M92.0873 120.024C91.9716 120.025 91.8568 120.003 91.7496 119.96C91.6423 119.917 91.5447 119.853 91.4624 119.772C91.38 119.69 91.3147 119.594 91.27 119.487C91.2253 119.38 91.2023 119.266 91.2021 119.15C91.2079 118.633 91.6125 118.217 92.0997 118.225C92.2234 118.229 92.3451 118.257 92.4578 118.308C92.5706 118.358 92.6721 118.431 92.7567 118.521C92.8412 118.612 92.907 118.718 92.9503 118.833C92.9936 118.949 93.0135 119.073 93.0089 119.196C92.9974 119.679 92.6004 120.036 92.0873 120.024Z" fill="#1E1E1E"/>
<path d="M51.0176 119.14C51.0119 118.641 51.3867 118.229 51.8547 118.219C52.105 118.219 52.3454 118.317 52.5249 118.491C52.7044 118.666 52.8087 118.903 52.8157 119.153C52.8137 119.387 52.719 119.61 52.5525 119.774C52.386 119.938 52.1613 120.029 51.9277 120.027C51.378 120.027 51.0176 119.679 51.0176 119.14Z" fill="#1E1E1E"/>
<path d="M92.6484 129.564C92.6523 129.798 92.5647 130.024 92.4042 130.194C92.2436 130.364 92.023 130.465 91.7892 130.475C91.6693 130.474 91.5509 130.449 91.4407 130.402C91.3306 130.355 91.231 130.286 91.1478 130.2C91.0646 130.113 90.9996 130.011 90.9564 129.899C90.9132 129.788 90.8928 129.668 90.8964 129.548C90.8964 128.998 91.2539 128.646 91.8007 128.659C92.3091 128.671 92.6493 129.038 92.6484 129.564Z" fill="#1E1E1E"/>
<path d="M108.487 85.8994C108.487 85.195 108.494 84.4905 108.487 83.7851C108.481 83.3796 108.663 83.197 109.064 83.2085C109.465 83.2201 109.864 83.2008 110.264 83.2133C110.856 83.2306 111.346 83.4882 111.573 84.0292C111.811 84.5953 111.735 85.1892 111.259 85.6217C110.957 85.8946 110.97 86.0551 111.216 86.3578C111.636 86.8719 111.568 87.5725 111.799 88.1665C111.855 88.3116 111.74 88.4442 111.568 88.4692C111.318 88.5048 111.111 88.4298 111.037 88.1722C110.941 87.8349 110.879 87.487 110.788 87.1468C110.618 86.5077 110.201 86.1771 109.635 86.1915C109.315 86.1992 109.163 86.3405 109.163 86.6586C109.163 87.0901 109.163 87.5235 109.152 87.955C109.145 88.1943 109.152 88.473 108.797 88.4615C108.471 88.45 108.488 88.1895 108.487 87.9656C108.487 87.2756 108.487 86.5875 108.487 85.8994ZM109.822 83.7784C109.237 83.7784 109.161 83.8745 109.159 84.6558C109.159 85.5294 109.202 85.6082 109.723 85.6168C110.47 85.6293 110.952 85.2651 110.948 84.6933C110.945 84.1215 110.522 83.7813 109.82 83.7784H109.822Z" fill="#1E1E1E"/>
</svg>
