<svg width="74" height="74" viewBox="0 0 74 74" fill="none" xmlns="http://www.w3.org/2000/svg">
<path d="M73.3285 14.84L64.1836 23.9518H57.3382H53.589L51.9176 25.6171L45.5604 31.9514L41.5992 35.8982L38.2497 39.2356C37.7487 39.7348 37.0923 39.9844 36.4356 39.9844C35.7548 39.9844 35.0734 39.7159 34.5663 39.1792C33.6032 38.1601 33.7041 36.5344 34.6973 35.5444L41.3616 28.9042L41.8719 28.3957L48.2567 22.034L49.9603 20.3366V16.6971V9.78021L53.1223 6.62966L59.1052 0.668409C59.1843 0.5896 59.2673 0.520777 59.3521 0.456589C59.3725 0.441256 59.3925 0.426278 59.4133 0.411658C59.4981 0.351749 59.5847 0.296477 59.6735 0.250119C59.6806 0.246196 59.6882 0.2437 59.6957 0.239778C59.7798 0.197342 59.8653 0.161682 59.9519 0.130658C59.9738 0.122813 59.9952 0.114968 60.0171 0.107836C60.109 0.0782385 60.2021 0.0532766 60.2959 0.0361599C60.3087 0.0336637 60.322 0.0329505 60.3349 0.0304543C60.4193 0.016547 60.5038 0.0079886 60.5886 0.00370942C60.6105 0.00263963 60.6319 0.00121324 60.6538 0.000500039C60.7482 -0.00128295 60.8424 0.00156983 60.9358 0.011198C60.9512 0.012981 60.9666 0.0158338 60.9819 0.0176168C61.0628 0.0276015 61.1434 0.042222 61.2224 0.0607652C61.2446 0.0661141 61.2672 0.0707499 61.2894 0.0764555C61.3799 0.100348 61.4694 0.128519 61.556 0.162752C61.5689 0.167745 61.5811 0.174163 61.5936 0.179156C61.6698 0.210893 61.7439 0.246909 61.8162 0.286492C61.8369 0.297903 61.8577 0.308958 61.8777 0.320725C61.9586 0.368153 62.0374 0.419146 62.1122 0.475846C62.1211 0.482621 62.1293 0.490466 62.1379 0.497241C62.2045 0.549661 62.2679 0.606004 62.3287 0.665913C62.3459 0.682673 62.363 0.699433 62.3795 0.716906C62.445 0.78573 62.5076 0.857406 62.5645 0.934788C62.5692 0.941206 62.5731 0.948338 62.5781 0.955114C62.63 1.0275 62.6766 1.10382 62.7199 1.18298C62.7317 1.20473 62.7435 1.22649 62.7546 1.24895C62.7986 1.33667 62.8394 1.42725 62.872 1.52282C62.8734 1.52745 62.8745 1.53209 62.8759 1.53673C62.9067 1.62837 62.9299 1.72394 62.9489 1.822C62.9539 1.84804 62.9586 1.87442 62.9629 1.90081C62.9793 2.00565 62.9919 2.11263 62.9944 2.22425L63.178 10.7812L63.3616 10.7851L71.7656 10.9641C72.219 10.9737 72.6163 11.1093 72.9488 11.3229C73.0758 11.4045 73.1964 11.4937 73.3027 11.5971C73.4563 11.7468 73.5873 11.9169 73.6925 12.1013C73.7977 12.2857 73.8779 12.4839 73.9298 12.6897C74.1119 13.4107 73.9494 14.2216 73.3285 14.84ZM35.9828 17.9074C24.7822 17.9074 15.6696 26.9871 15.6696 38.1472C15.6696 49.3074 24.7822 58.3871 35.9828 58.3871C47.1834 58.3871 56.2961 49.3074 56.2961 38.1472C56.2961 35.3943 55.7367 32.7712 54.7321 30.3777L47.3914 37.6919C47.3974 37.8438 47.4082 37.9943 47.4082 38.1476C47.4082 44.4252 42.2828 49.532 35.9825 49.532C29.6821 49.532 24.5568 44.4248 24.5568 38.1476C24.5568 31.8922 29.6471 26.8006 35.9166 26.765L43.4005 19.3082C41.1018 18.4053 38.5997 17.9074 35.9828 17.9074ZM67.9794 27.7342C66.9727 28.7373 65.6073 29.3008 64.1833 29.3008H60.0761C61.1004 32.059 61.6644 35.0381 61.6644 38.1469C61.6644 52.2568 50.1439 63.7357 35.9828 63.7357C21.8218 63.7357 10.3012 52.2568 10.3012 38.1469C10.3012 24.037 21.8218 12.5581 35.9828 12.5581C39.0027 12.5581 41.8995 13.0855 44.5919 14.0455V9.78021C44.5919 8.36166 45.1574 7.00088 46.1641 5.99777L47.8623 4.30571C44.1413 3.0052 40.144 2.2945 35.9825 2.2945C16.1416 2.29485 0 18.3782 0 38.1472C0 57.9163 16.142 74 35.9828 74C55.8236 74 71.9656 57.9163 71.9656 38.1472C71.9656 33.8531 71.2012 29.7344 69.8051 25.9156L67.9794 27.7342Z" fill="#292929"/>
</svg>
