<svg width="18" height="19" viewBox="0 0 18 19" fill="none" xmlns="http://www.w3.org/2000/svg">
<path d="M14.7731 12.5436C13.7104 12.5436 12.774 13.0663 12.1858 13.8613L7.10052 11.2574C7.18495 10.9696 7.24429 10.6713 7.24429 10.3566C7.24429 9.92978 7.15677 9.52398 7.00559 9.15073L12.3276 5.94818C12.9198 6.64327 13.7904 7.09414 14.7731 7.09414C16.5524 7.09414 17.9997 5.64678 17.9997 3.86751C17.9997 2.08823 16.5524 0.640869 14.7731 0.640869C12.9938 0.640869 11.5465 2.08823 11.5465 3.86751C11.5465 4.27754 11.6309 4.66649 11.771 5.02759L6.43315 8.23953C5.84138 7.56509 4.98338 7.12999 4.01765 7.12999C2.23838 7.12999 0.791016 8.57735 0.791016 10.3566C0.791016 12.1359 2.23838 13.5833 4.01765 13.5833C5.09786 13.5833 6.05011 13.0452 6.63607 12.2279L11.7046 14.8233C11.6113 15.1247 11.5465 15.4386 11.5465 15.7702C11.5465 17.5495 12.9938 18.9968 14.7731 18.9968C16.5524 18.9968 17.9997 17.5495 17.9997 15.7702C17.9997 13.9909 16.5524 12.5436 14.7731 12.5436Z" fill="white"/>
</svg>
