<svg width="27" height="26" viewBox="0 0 27 26" fill="none" xmlns="http://www.w3.org/2000/svg">
<path d="M13.5337 26C20.6573 26 26.429 20.2283 26.429 13.1047C26.429 5.98118 20.6573 0.209473 13.5337 0.209473C6.41013 0.209473 0.638428 5.98118 0.638428 13.1047C0.638428 20.2283 6.41013 26 13.5337 26ZM6.53909 12.8253L18.9723 8.03152C19.5493 7.82305 20.0533 8.1723 19.8663 9.04488L19.8674 9.0438L17.7504 19.0172C17.5935 19.7243 17.1734 19.8962 16.5856 19.5631L13.3618 17.1872L11.8068 18.6852C11.6349 18.8571 11.4898 19.0022 11.1567 19.0022L11.3856 15.7214L17.3604 10.3237C17.6204 10.0948 17.3023 9.96581 16.9595 10.1936L9.57592 14.8424L6.39294 13.8494C5.70197 13.6302 5.68692 13.1585 6.53909 12.8253Z" fill="white"/>
</svg>
