<svg width="85" height="85" viewBox="0 0 85 85" fill="none" xmlns="http://www.w3.org/2000/svg">
<path d="M79.9338 33.3023C78.9733 29.165 77.3515 25.2521 75.0998 21.639L76.647 17.0698L67.1857 7.60845L62.6164 9.15554C59.0033 6.90383 55.0903 5.2819 50.953 4.32151L48.8178 0H35.4372L33.3022 4.32135C29.1649 5.28174 25.2519 6.9035 21.6388 9.15537L17.0696 7.60829L7.60812 17.0696L9.15537 21.6388C6.90366 25.2519 5.2819 29.1649 4.32135 33.3022L0 35.4374V48.8178L4.32135 50.9528C5.28174 55.0901 6.9035 59.0031 9.15537 62.6162L7.60812 67.1854L17.0696 76.6467L21.6388 75.0996C25.2519 77.3513 29.1649 78.9733 33.3022 79.9337L35.4372 84.255H48.8178L50.9528 79.9337C55.0901 78.9733 59.0031 77.3515 62.6162 75.0996L67.1856 76.6467L76.6469 67.1854L75.0996 62.6162C77.3513 59.0031 78.9733 55.0901 79.9337 50.9528L84.255 48.8178V35.4374L79.9338 33.3023ZM42.1276 71.039C26.1858 71.039 13.2162 58.0693 13.2162 42.1276C13.2162 26.1858 26.1857 13.2162 42.1276 13.2162C58.0695 13.2162 71.039 26.1858 71.039 42.1276C71.039 58.0693 58.0693 71.039 42.1276 71.039Z" fill="#292929"/>
<path d="M61.1427 44.5947V39.6604H65.9787C64.8231 28.4053 55.8499 19.4321 44.5948 18.2765V23.1125H39.6605V18.2765C28.4054 19.4321 19.4322 28.4053 18.2766 39.6604H23.1126V44.5947H18.2766C19.4322 55.8498 28.4054 64.823 39.6605 65.9786V61.1426H44.5948V65.9786C55.8499 64.823 64.8231 55.8498 65.9787 44.5947H61.1427ZM44.5948 44.5947H32.7507V39.6604H39.6605V28.0472H44.5948V44.5947Z" fill="#292929"/>
</svg>
