<svg width="71" height="71" viewBox="0 0 71 71" fill="none" xmlns="http://www.w3.org/2000/svg">
<mask id="mask0_1_607" style="mask-type:luminance" maskUnits="userSpaceOnUse" x="0" y="0" width="71" height="71">
<path d="M0 0H71V71H0V0Z" fill="white"/>
</mask>
<g mask="url(#mask0_1_607)">
<path d="M49.1695 40.8492L58.0234 31.9953C59.5839 30.435 60.4605 28.3188 60.4605 26.1122V9.29126C60.4605 6.99361 62.3231 5.1311 64.6206 5.1311C66.9181 5.1311 68.7808 6.99361 68.7808 9.29126V32.005C68.7808 35.249 67.6435 38.3904 65.5666 40.8825L54.9136 53.6663V60.5999H35.4995V48.4981C35.4995 44.8205 36.9604 41.2934 39.5608 38.6927L51.6357 26.6172C53.2602 24.9927 55.894 24.9925 57.5187 26.6169C59.1433 28.2415 59.1435 30.8755 57.5189 32.5001L49.1696 40.8499" stroke="#1E1E1E" stroke-width="3" stroke-miterlimit="10" stroke-linecap="round" stroke-linejoin="round"/>
<path d="M21.83 40.8492L12.9761 31.9953C11.4156 30.435 10.5391 28.3188 10.5391 26.1122V9.29126C10.5391 6.99361 8.67642 5.1311 6.37891 5.1311C4.08139 5.1311 2.21875 6.99361 2.21875 9.29126V32.005C2.21875 35.249 3.356 38.3904 5.43289 40.8825L16.0859 53.6663V60.5999H35.5V48.4981C35.5 44.8205 34.0391 41.2934 31.4387 38.6927L19.3639 26.6172C17.7393 24.9927 15.1055 24.9925 13.4808 26.6169C11.8562 28.2415 11.856 30.8755 13.4806 32.5001L21.8299 40.8499" stroke="#1E1E1E" stroke-width="3" stroke-miterlimit="10" stroke-linecap="round" stroke-linejoin="round"/>
<path d="M57.687 68.9202H35.4995V60.5999H57.687V68.9202Z" stroke="#1E1E1E" stroke-width="3" stroke-miterlimit="10" stroke-linecap="round" stroke-linejoin="round"/>
<path d="M35.5 68.9202H13.3125V60.5999H35.5V68.9202Z" stroke="#1E1E1E" stroke-width="3" stroke-miterlimit="10" stroke-linecap="round" stroke-linejoin="round"/>
<path d="M35.4991 6.18269L33.4128 4.09637C30.7244 1.40794 26.3656 1.40794 23.6771 4.09637C20.9885 6.78494 20.9885 11.1437 23.6771 13.8322L35.4991 25.6543L47.3212 13.8322C50.0098 11.1437 50.0098 6.78494 47.3212 4.09637C44.6326 1.40794 40.2739 1.40794 37.5854 4.09637L35.4991 6.18269Z" stroke="#1E1E1E" stroke-width="3" stroke-miterlimit="10" stroke-linecap="round" stroke-linejoin="round"/>
</g>
</svg>
