<svg width="27" height="26" viewBox="0 0 27 26" fill="none" xmlns="http://www.w3.org/2000/svg">
<g clipPath="url(#clip0_1_81)">
<path d="M13.2375 0.209473C6.11594 0.209473 0.342285 5.98312 0.342285 13.1047C0.342285 20.2263 6.11594 26 13.2375 26C20.3592 26 26.1328 20.2263 26.1328 13.1047C26.1328 5.98312 20.3592 0.209473 13.2375 0.209473Z" fill="white"/>
<path d="M14.6483 11.9379L20.1686 5.521H18.8605L14.0672 11.0927L10.2388 5.521H5.82324L11.6125 13.9464L5.82324 20.6755H7.13145L12.1933 14.7916L16.2363 20.6755H20.6519L14.648 11.9379H14.6483ZM7.60281 6.50581H9.61214L18.8611 19.7355H16.8518L7.60281 6.50581Z" fill="#00AFD7"/>
</g>
<defs>
<clipPath id="clip0_1_81">
<rect width="25.7905" height="25.7905" fill="white" transform="translate(0.342285 0.209473)"/>
</clipPath>
</defs>
</svg>
