<svg width="95" height="82" viewBox="0 0 95 82" fill="none" xmlns="http://www.w3.org/2000/svg">
<path d="M60.4911 34.3285C64.5465 37.7682 65.0616 38.2463 66.8463 39.7832C68.154 38.6616 69.2759 37.6413 74.0316 33.6532C82.7601 26.324 89.0666 21.032 89.0666 13.215C89.0666 5.80449 83.6228 0 76.6734 0C72.0053 0 68.9078 2.63384 66.963 5.31639C65.1213 2.6257 62.1267 0 57.4451 0C50.4959 0 45.0547 5.80468 45.0547 13.215C45.0545 21.2302 51.1956 26.4406 60.4911 34.3285Z" fill="#FEFBF8"/>
<path d="M15.8877 79.9927C23.1648 75.0489 31.1273 73.1598 39.7932 74.6043L53.6809 76.993C59.0139 77.8819 63.902 77.604 68.1239 76.2152C76.8579 73.3044 85.6014 64.1369 87.9186 60.661C91.1407 55.8281 92.9108 50.5508 94.022 47.9957C95.0774 45.5514 95.0774 43.8294 93.9664 42.8295C92.6886 41.6627 90.5223 42.2738 88.9111 43.1628C86.356 44.6071 83.6412 48.7734 80.8637 52.7729C77.2531 57.9946 71.0684 61.1055 64.7355 61.1055H44.6259V55.5504H52.9585C67.7348 55.5504 74.3454 52.7729 74.3454 49.9953C74.3454 47.6624 69.7348 46.6067 68.1792 46.2736C62.1244 44.8848 48.4587 44.2182 39.1264 40.0519C37.4434 39.3155 35.5354 38.9022 33.5161 38.8852C30.3501 38.8583 26.9093 39.8447 23.6276 42.3849C23.5724 42.3849 23.5724 42.3849 23.5166 42.4404C21.3502 44.1069 18.3875 46.5512 14.3878 50.0509C10.999 53.0504 7.72173 56.8834 1.99983 61.7721L0 63.4941L13.6657 81.4927L15.8877 79.9927Z" fill="#FEFBF8"/>
</svg>
