<svg width="53" height="45" viewBox="0 0 53 45" fill="none" xmlns="http://www.w3.org/2000/svg">
<path d="M21.3231 17.9838H25.1429C25.4252 17.9838 25.4364 17.9958 25.4368 18.2849C25.4368 18.6424 25.4368 18.9999 25.4368 19.3572C25.4368 19.6643 25.4236 19.6778 25.121 19.6778H18.7035C18.2835 19.6778 17.8631 19.6831 17.443 19.6778C17.2676 19.6748 17.1935 19.7373 17.1961 19.9184C17.2033 20.4374 17.2296 20.9526 17.2827 21.4709C17.3233 21.8653 17.3523 22.2647 17.3839 22.6621C17.4242 23.1668 17.516 23.6644 17.5943 24.1638C17.7242 24.9919 17.9255 25.8063 18.1288 26.6189C18.1638 26.7586 18.2135 26.8944 18.2507 27.0329C18.288 27.1714 18.3934 27.1398 18.4766 27.1131C18.9914 26.9494 19.5229 26.8636 20.0536 26.7744C21.1266 26.5929 22.2057 26.465 23.2904 26.3603C23.9197 26.2986 24.5523 26.3103 25.1794 26.2309C25.3849 26.2049 25.4327 26.2501 25.4342 26.4496C25.4379 26.8447 25.4342 27.2399 25.4376 27.6351C25.4395 27.7973 25.3672 27.8391 25.2118 27.8583C24.806 27.9091 24.3928 27.8406 23.9964 27.905C23.3713 28.0066 22.7363 27.9705 22.1146 28.0883C21.7717 28.153 21.4108 28.1278 21.0716 28.2046C20.5026 28.3333 19.9158 28.3551 19.3535 28.5125C19.2933 28.5294 19.2312 28.5399 19.1695 28.552C18.7607 28.6329 18.7649 28.631 18.9105 29.03C19.1463 29.6841 19.4211 30.3235 19.7336 30.9446C20.0435 31.5662 20.3913 32.1682 20.7751 32.747C21.1526 33.2988 21.5752 33.8184 22.0385 34.3003C22.302 34.5781 22.6031 34.8114 22.9166 35.0335C23.4353 35.4027 23.987 35.7016 24.5953 35.8992C24.8053 35.9669 25.0217 35.9993 25.2351 36.0497C25.3672 36.0817 25.4357 36.1404 25.4353 36.2755C25.4353 36.6961 25.4353 37.1163 25.4353 37.5364C25.4353 37.6692 25.3774 37.7246 25.2362 37.714C24.5881 37.67 23.9415 37.6139 23.2953 37.5413C22.8462 37.4905 22.404 37.4073 21.9633 37.3215C21.5158 37.2341 21.0788 37.093 20.6373 36.9748C19.7126 36.7249 18.8124 36.3917 17.9477 35.9793C17.3229 35.6903 16.7162 35.3635 16.131 35.0008C15.3936 34.5393 14.6871 34.0301 14.0162 33.4764C12.9165 32.5645 11.9101 31.5455 11.0119 30.4346C10.4996 29.7941 10.0275 29.1225 9.59829 28.4236C9.03428 27.5132 8.56128 26.5494 8.18614 25.5463C7.86191 24.6982 7.60185 23.8269 7.40817 22.9399C7.2851 22.3603 7.20305 21.7731 7.13079 21.1807C7.01787 20.245 6.98852 19.3094 7.00094 18.3703C7.00884 17.7892 7.08186 17.2118 7.12966 16.633C7.18235 16.0003 7.29601 15.3793 7.42022 14.7609C7.53382 14.2103 7.67845 13.6666 7.85342 13.1323C8.04161 12.5477 8.25727 11.9744 8.50041 11.4123C8.71716 10.9123 8.96026 10.4241 9.22869 9.94973C9.68674 9.13639 10.1813 8.34488 10.7681 7.61622C11.1132 7.18753 11.4655 6.76561 11.8373 6.35838C12.2092 5.95114 12.5927 5.55445 12.9943 5.1777C13.7094 4.50587 14.4497 3.86265 15.2695 3.3139C15.665 3.05043 16.0557 2.77606 16.4656 2.53405C17.2428 2.07488 18.0599 1.697 18.8917 1.34697C19.6207 1.0406 20.3757 0.813651 21.1375 0.615679C21.7611 0.453041 22.3938 0.327364 23.0322 0.239306C23.5407 0.170053 24.0514 0.133543 24.5599 0.0729471C24.7755 0.0473537 24.995 0.0582693 25.211 0.00783526C25.3499 -0.0241565 25.4368 0.0420861 25.4368 0.201668C25.4342 0.628475 25.4349 1.05491 25.4368 1.48134C25.4368 1.60817 25.3796 1.66952 25.2516 1.69587C24.3431 1.89572 23.5324 2.30409 22.8052 2.87956C21.6546 3.79076 20.7679 4.92327 20.0457 6.19165C19.6049 6.96622 19.2086 7.76075 18.9165 8.60533C18.8759 8.72313 18.8217 8.8368 18.7705 8.95121C18.7148 9.07466 18.76 9.13601 18.8834 9.168C19.5014 9.3257 20.1277 9.44426 20.7551 9.55906C21.4198 9.68062 22.0931 9.7352 22.7597 9.84171C22.9457 9.86774 23.1331 9.88257 23.3209 9.88612C23.9332 9.90908 24.5403 10.0099 25.1542 10.0039C25.409 10.0013 25.4323 10.0273 25.4338 10.2847C25.4361 10.6483 25.4312 11.0122 25.4361 11.3762C25.438 11.5267 25.3777 11.5941 25.2245 11.5903C24.5493 11.5734 23.8756 11.5493 23.2042 11.4628C22.8387 11.4157 22.4672 11.4191 22.1014 11.3626C21.2305 11.229 20.3539 11.1285 19.4954 10.9196C19.1668 10.8399 18.8337 10.7781 18.5104 10.6773C18.3625 10.6313 18.2699 10.669 18.2221 10.8214C18.1171 11.156 18.0369 11.4989 17.9519 11.8376C17.8337 12.31 17.7502 12.7902 17.644 13.2656C17.5405 13.7278 17.4935 14.2035 17.4284 14.674C17.3787 15.0266 17.3376 15.38 17.2925 15.7331C17.2882 15.7514 17.2856 15.77 17.2846 15.7888C17.3271 16.4218 17.1506 17.044 17.1939 17.6782C17.2142 17.9774 17.2067 17.9876 17.5014 17.9876C18.776 17.9855 20.0499 17.9843 21.3231 17.9838ZM15.5589 20.775C15.612 20.4807 15.4889 20.2432 15.5013 19.9891C15.516 19.6861 15.4953 19.6771 15.1833 19.6771H11.0624C10.3285 19.6771 9.59452 19.6771 8.86097 19.6771C8.64983 19.6771 8.61106 19.717 8.63778 19.8995C8.74129 20.6101 8.7507 21.3298 8.90877 22.0373C9.03486 22.5981 9.15078 23.1608 9.29869 23.7163C9.36305 23.958 9.43532 24.1985 9.52151 24.4314C9.8597 25.3622 10.2715 26.2646 10.753 27.13C11.1779 27.8865 11.6714 28.5945 12.1964 29.2821C12.2623 29.368 12.3225 29.395 12.4335 29.3352C12.832 29.1239 13.2362 28.924 13.6462 28.7353C14.306 28.43 14.9823 28.1707 15.6602 27.9099C15.9594 27.797 16.2676 27.713 16.5661 27.6001C16.6568 27.5659 16.6993 27.5211 16.667 27.4172C16.6075 27.2264 16.5567 27.0322 16.5021 26.8395C16.3109 26.1646 16.1731 25.4766 16.0395 24.7894C15.9104 24.1266 15.8359 23.4536 15.7384 22.7856C15.6353 22.1047 15.6462 21.4171 15.5589 20.775ZM12.0586 17.9838C13.1183 17.9838 14.1779 17.9838 15.2375 17.9838C15.4848 17.9838 15.5055 17.9631 15.5058 17.7139C15.5058 17.3752 15.5514 17.0395 15.5811 16.7045C15.6338 16.0831 15.6564 15.4595 15.7471 14.8388C15.8446 14.1708 15.9353 13.5008 16.0666 12.8399C16.2315 12.0119 16.4054 11.1861 16.6538 10.378C16.6914 10.2501 16.6579 10.1921 16.5232 10.1485C15.9884 9.9742 15.4516 9.80295 14.9292 9.59594C14.2025 9.30764 13.4851 8.99374 12.799 8.61511C12.2837 8.3302 12.2833 8.33772 11.9435 8.81346C11.4813 9.45245 11.0591 10.1194 10.6792 10.8105C10.2057 11.6725 9.80737 12.5737 9.48876 13.5042C9.29376 14.0789 9.13426 14.665 9.01115 15.2592C8.9178 15.7176 8.80979 16.1731 8.76914 16.6424C8.73865 16.9977 8.70515 17.3526 8.67392 17.7075C8.6502 17.9755 8.63101 17.9838 8.89974 17.9842C9.95133 17.9844 11.0038 17.9843 12.0571 17.9838H12.0586ZM20.8707 2.45878C19.9806 2.70794 19.117 3.04337 18.2921 3.4603C17.0125 4.11331 15.8081 4.88074 14.7234 5.83673C14.295 6.2131 13.8897 6.61243 13.4757 7.00348C13.3492 7.12279 13.365 7.18452 13.5133 7.25753C14.0192 7.50519 14.5363 7.7265 15.0564 7.9399C15.665 8.18906 16.2883 8.39795 16.9105 8.60984C17.1792 8.7013 17.1769 8.7013 17.2955 8.39795C17.7848 7.14763 18.3305 5.92743 19.0501 4.78853C19.4325 4.18407 19.8405 3.60182 20.3193 3.07076C20.504 2.86677 20.6872 2.66277 20.8692 2.45878H20.8707ZM20.8658 35.2811C20.8564 35.1761 20.7826 35.1393 20.7333 35.0884C20.1655 34.4965 19.6546 33.8525 19.2075 33.1648C18.8665 32.648 18.5676 32.1038 18.2786 31.5558C17.8883 30.82 17.5751 30.0503 17.2684 29.2803C17.1931 29.0894 17.1611 29.0684 16.9647 29.1395C16.3888 29.348 15.8002 29.5159 15.236 29.7624C14.6846 30.0018 14.1291 30.2302 13.5999 30.517C13.4072 30.6217 13.3906 30.66 13.5472 30.814C13.7425 31.0056 13.9458 31.1903 14.1449 31.3785C14.8393 32.0319 15.5664 32.6413 16.3655 33.1637C16.7373 33.4068 17.1092 33.653 17.4972 33.869C18.3576 34.3474 19.2481 34.7655 20.1842 35.0753C20.4021 35.1479 20.6181 35.2552 20.8643 35.2811H20.8658Z" fill="#4FC9EE"/>
<path d="M45.498 36.1927C45.5356 36.2247 45.5732 36.2552 45.6082 36.2894C47.2154 37.848 48.7961 39.4329 50.3776 41.0171C50.9531 41.5933 51.5316 42.1665 52.1033 42.7465C52.1741 42.8184 52.3431 42.856 52.302 42.9633C52.2584 43.0762 52.1003 43.0126 51.993 43.0164C51.7672 43.0244 51.5414 43.0244 51.3156 43.0164C49.1469 42.9467 46.9764 42.9475 44.8081 42.9844C41.0395 43.0484 37.2708 42.9746 33.503 43.034C32.8782 43.0442 32.2387 43.0209 31.6154 43.1586C30.6692 43.3607 29.775 43.7566 28.9895 44.3216C28.7757 44.4759 28.571 44.6385 28.3719 44.8109C28.3574 44.8272 28.3391 44.8397 28.3188 44.8473C28.2984 44.855 28.2764 44.8576 28.2548 44.8549C27.8811 44.7917 27.5021 44.8294 27.1287 44.8267C26.2442 44.8203 25.3598 44.7943 24.476 44.8391C24.097 44.8583 23.849 44.7213 23.5806 44.5038C22.8527 43.9118 22.0322 43.5072 21.1207 43.2565C20.4963 43.0849 19.87 43.0871 19.2388 43.0683C15.6843 42.9554 12.1287 43.0713 8.57426 43.0107C6.51776 42.9757 4.46126 42.9799 2.40513 42.9862C1.67911 42.9885 0.951958 43.0198 0.225181 43.0175C0.149907 43.0175 0.0396291 43.0581 0.00613191 42.964C-0.0273653 42.87 0.0847944 42.8323 0.138992 42.7785C1.0172 41.9046 1.89665 41.0319 2.77737 40.1604C3.64905 39.2948 4.50567 38.4137 5.39391 37.5657C5.83841 37.1416 6.27049 36.7053 6.70746 36.2736C6.75375 36.2277 6.79289 36.1709 6.86403 36.1577C6.87131 36.1739 6.87262 36.1922 6.86772 36.2093C6.86283 36.2264 6.85206 36.2412 6.8373 36.2511C6.4933 36.6139 6.17376 36.9982 5.84819 37.3775C5.28175 38.0373 4.70666 38.6896 4.14021 39.3494C3.61329 39.9617 3.09465 40.5794 2.57488 41.1966C2.53724 41.2399 2.45783 41.2835 2.4996 41.352C2.54138 41.4205 2.62569 41.3897 2.69155 41.3855C3.12175 41.3502 3.54517 41.2643 3.97649 41.229C4.64907 41.174 5.31901 41.0852 5.99046 41.0137C6.59266 40.9497 7.19486 40.8842 7.79705 40.8097C8.29951 40.7472 8.80536 40.7156 9.30556 40.6369C9.91152 40.5417 10.525 40.5172 11.1328 40.4408C11.7275 40.3656 12.3271 40.3279 12.9187 40.2425C13.4528 40.1672 13.9907 40.1469 14.5221 40.066C15.4118 39.9305 16.311 39.8755 17.2007 39.7378C17.7619 39.6508 18.3321 39.6226 18.8944 39.5398C19.3837 39.4675 19.8764 39.3968 20.3653 39.3655C21.0108 39.3238 21.6649 39.3204 22.3108 39.4608C23.5573 39.7318 24.5799 40.3554 25.4027 41.3287C25.6699 41.6449 25.8592 41.9998 26.0496 42.3588C26.0726 42.4017 26.079 42.4718 26.1324 42.4755C26.1953 42.4804 26.222 42.4127 26.2454 42.3649C26.6247 41.5812 27.1897 40.9471 27.8743 40.4273C28.3799 40.0446 28.9503 39.7561 29.5582 39.5756C30.3486 39.3373 31.1563 39.3121 31.9613 39.3697C32.5168 39.4026 33.0698 39.4689 33.6174 39.568C33.9185 39.6256 34.2267 39.6301 34.5312 39.6663C34.9829 39.7197 35.4345 39.7931 35.8895 39.8341C36.4251 39.8823 36.9618 39.9388 37.491 40.0182C38.1162 40.1119 38.75 40.1108 39.3729 40.2391C39.7071 40.308 40.0564 40.3016 40.3977 40.3385C41.0812 40.4137 41.764 40.4943 42.4478 40.5692C43.0568 40.6358 43.6669 40.6923 44.2755 40.7623C45.0512 40.8515 45.8235 40.9776 46.6011 41.0359C47.2812 41.0875 47.9504 41.2241 48.6335 41.2508C48.944 41.2621 49.2523 41.3283 49.5617 41.3701C49.5993 41.375 49.6369 41.387 49.6746 41.3882C49.7299 41.3882 49.8018 41.4126 49.8342 41.363C49.8718 41.3073 49.8067 41.2583 49.7739 41.2184C49.6942 41.1217 49.6012 41.0363 49.5206 40.9403C49.0543 40.3844 48.5654 39.8488 48.1006 39.2906C47.6154 38.7095 47.1088 38.1472 46.6301 37.5593C46.2981 37.1521 45.9387 36.7689 45.5917 36.3726C45.548 36.3226 45.5081 36.2687 45.4664 36.2168L45.498 36.1927Z" fill="#4FC9EE"/>
<path d="M40.2168 19.6428H43.3971C43.6832 19.6428 43.6926 19.6553 43.696 19.9379C43.7005 20.3218 43.6056 20.6944 43.5766 21.0749C43.536 21.6113 43.4329 22.1401 43.3267 22.6674C43.2251 23.1713 43.0674 23.6602 42.9172 24.1507C42.6248 25.1051 42.2067 26.0058 41.7411 26.8876C41.2864 27.7488 40.7313 28.5437 40.1539 29.3235C40.035 29.4842 39.8999 29.4462 39.7753 29.3687C39.3583 29.1094 38.9096 28.9095 38.4693 28.7029C37.8195 28.3922 37.1508 28.1231 36.467 27.8971C36.2464 27.8263 36.0277 27.7488 35.8079 27.6754C35.5881 27.602 35.5674 27.5508 35.6325 27.3284C35.8181 26.6919 35.9807 26.0487 36.1079 25.3991C36.2351 24.7495 36.3461 24.0961 36.435 23.4386C36.4929 23.011 36.5479 22.5842 36.5855 22.154C36.6472 21.3821 36.7504 20.6131 36.7323 19.8363C36.7278 19.6515 36.8452 19.6421 36.9818 19.6421C37.9792 19.6421 38.9766 19.6421 39.974 19.6421L40.2168 19.6428Z" fill="#4FC9EE"/>
<path d="M40.2054 18.0594C39.1455 18.0594 38.0858 18.0594 37.0262 18.0594C36.7431 18.0594 36.7307 18.047 36.7311 17.761C36.7311 17.2604 36.6871 16.7636 36.6411 16.2649C36.5922 15.738 36.5783 15.2035 36.4936 14.6804C36.4217 14.2366 36.3807 13.7884 36.29 13.3472C36.168 12.7451 36.0578 12.1429 35.9272 11.5455C35.8421 11.1549 35.7288 10.7706 35.631 10.3826C35.5779 10.1733 35.6076 10.1409 35.8142 10.0781C36.4928 9.87869 37.1596 9.64107 37.8113 9.36635C38.5241 9.05885 39.2276 8.73178 39.919 8.37611C40.0345 8.31627 40.1188 8.33847 40.196 8.43708C40.6344 9.00007 41.0357 9.59097 41.3974 10.206C41.7718 10.843 42.1075 11.502 42.4027 12.1794C42.6552 12.7665 42.8543 13.371 43.0384 13.9826C43.2047 14.5347 43.3541 15.0895 43.4403 15.6582C43.4983 16.0398 43.5841 16.4173 43.5988 16.808C43.6104 17.1242 43.6917 17.4377 43.6974 17.7572C43.7019 18.0433 43.6861 18.0583 43.4046 18.0583C42.3367 18.0596 41.2703 18.0599 40.2054 18.0594Z" fill="#4FC9EE"/>
<path d="M31.0479 18.0591H27.2281C26.9522 18.0591 26.9395 18.0459 26.9395 17.7734C26.9395 15.7789 26.9395 13.7841 26.9395 11.7891C26.9395 11.5297 26.9571 11.5075 27.2172 11.5109C27.9131 11.5207 28.6098 11.5057 29.2989 11.4187C29.8752 11.3461 30.4544 11.293 31.0303 11.2015C31.6223 11.1071 32.2121 10.9987 32.7992 10.8884C33.1846 10.8161 33.57 10.7243 33.9498 10.6189C34.0808 10.5813 34.1504 10.611 34.1843 10.7454C34.2878 11.1519 34.4101 11.5538 34.4993 11.9637C34.6205 12.5256 34.7338 13.0902 34.8203 13.6574C34.9374 14.4225 35.0413 15.1888 35.0917 15.9645C35.1293 16.5577 35.1933 17.149 35.1865 17.7448C35.1832 18.0497 35.1798 18.0568 34.8666 18.0572L31.0479 18.0591Z" fill="#4FC9EE"/>
<path d="M31.0595 19.7046C32.3761 19.7046 33.6934 19.7046 35.0114 19.7046C35.1323 19.7046 35.1895 19.7479 35.1868 19.8657C35.1819 20.0915 35.2245 20.3173 35.1409 20.5364C35.1333 20.5537 35.1302 20.5728 35.1319 20.5917C35.1857 20.9067 35.0942 21.2142 35.0826 21.5251C35.0615 22.0125 35.0389 22.4965 34.9554 22.9809C34.8963 23.3234 34.8748 23.6772 34.8101 24.0201C34.6972 24.6223 34.5993 25.2267 34.4379 25.8195C34.3313 26.2121 34.2256 26.605 34.1176 26.9972C34.0765 27.1477 34.0095 27.1733 33.8605 27.1379C33.0573 26.9449 32.2481 26.783 31.4288 26.6645C30.3704 26.5113 29.3113 26.3897 28.2428 26.3314C27.8626 26.3107 27.4836 26.2742 27.102 26.2821C27.0007 26.2839 26.9514 26.2328 26.9461 26.1357C26.9431 26.0792 26.9424 26.0227 26.9424 25.9663C26.9424 23.9723 26.9424 21.9782 26.9424 19.9842C26.9424 19.7083 26.9424 19.7106 27.2239 19.7106C28.5036 19.7106 29.7832 19.7106 31.0629 19.7106L31.0595 19.7046Z" fill="#4FC9EE"/>
<path d="M26.9391 5.78516C26.9391 4.56872 26.9391 3.35178 26.9391 2.13434C26.9391 2.0154 26.9274 1.89647 26.924 1.77754C26.9206 1.66726 26.9579 1.62059 27.0836 1.64581C28.2504 1.87878 29.2188 2.46969 30.089 3.25969C30.7205 3.84037 31.2782 4.49655 31.7495 5.21345C32.1116 5.76251 32.4384 6.33398 32.7281 6.92444C33.0498 7.58187 33.3355 8.25632 33.584 8.94481C33.6622 9.15783 33.6592 9.17854 33.4376 9.22107C32.64 9.375 31.8523 9.57222 31.0449 9.68664C30.5884 9.75175 30.1273 9.79014 29.6719 9.86956C29.3451 9.92084 29.0154 9.95201 28.6847 9.9629C28.1909 9.98736 27.6964 9.99828 27.2022 10.0084C26.9575 10.0133 26.9387 9.99 26.9387 9.73557C26.939 8.41851 26.9391 7.10171 26.9391 5.78516Z" fill="#4FC9EE"/>
<path d="M26.9394 32.2638V28.147C26.9394 27.8481 26.9477 27.8274 27.245 27.8433C27.9131 27.8783 28.5812 27.9076 29.2485 27.9682C29.7649 28.0149 30.282 28.0608 30.7969 28.1188C31.2753 28.1668 31.751 28.2389 32.2222 28.3348C32.6136 28.4176 33.0084 28.4853 33.4017 28.5606C33.5956 28.5983 33.6306 28.6517 33.5568 28.829C33.2557 29.5516 32.9636 30.2773 32.5956 30.9702C32.1687 31.7737 31.7099 32.5592 31.1446 33.2717C30.6508 33.8942 30.1202 34.4908 29.4743 34.9654C28.8454 35.4291 28.1747 35.8156 27.4099 36.0147C27.3068 36.0414 27.2025 36.0625 27.0994 36.09C26.9639 36.1253 26.915 36.0681 26.9195 35.9364C26.9673 34.6255 26.9217 33.3146 26.9394 32.2638Z" fill="#4FC9EE"/>
<path d="M31.311 2.36657C31.6328 2.39743 31.9271 2.52125 32.2244 2.62325C33.1008 2.92387 33.9467 3.30698 34.7506 3.76743C35.6246 4.26838 36.4729 4.8096 37.2441 5.46825C37.8207 5.96093 38.3857 6.46188 38.9058 7.01402C39.0259 7.14123 39.0055 7.20221 38.8599 7.2741C38.3958 7.5082 37.9299 7.73666 37.444 7.92334C37.1289 8.04453 36.8207 8.1868 36.503 8.29971C36.0966 8.44386 35.6833 8.56844 35.2734 8.70318C35.1338 8.74948 35.0811 8.66554 35.0382 8.55677C34.8598 8.10211 34.6934 7.64218 34.4977 7.19505C34.1089 6.30606 33.6697 5.43927 33.1292 4.63346C32.62 3.87544 32.0611 3.15205 31.4006 2.5141C31.3625 2.47571 31.3072 2.44598 31.311 2.36657Z" fill="#4FC9EE"/>
<path d="M31.3467 35.3199C31.3843 35.2096 31.4799 35.1317 31.5593 35.0534C32.1739 34.4561 32.6723 33.7647 33.1333 33.0515C33.7954 32.0255 34.3558 30.9374 34.8067 29.8026C34.882 29.6111 34.9644 29.421 35.0393 29.2287C35.0927 29.0917 35.1759 29.0548 35.3197 29.1007C36.0724 29.3416 36.8165 29.5983 37.5369 29.9216C37.9535 30.1098 38.3694 30.298 38.7827 30.4918C39.0085 30.5983 39.0194 30.654 38.8467 30.826C37.9622 31.7056 37.0284 32.5231 35.9862 33.2171C35.184 33.7516 34.338 34.2175 33.4574 34.6097C32.8063 34.8999 32.1261 35.1212 31.4457 35.3357C31.4297 35.3442 31.4114 35.3472 31.3935 35.3444C31.3757 35.3415 31.3592 35.3329 31.3467 35.3199Z" fill="#4FC9EE"/>
<path d="M43.0659 31.7925C44.128 31.8038 44.8661 32.5765 44.883 33.5615C44.9014 34.6153 44.0971 35.4268 43.0327 35.4155C42.0568 35.4053 41.2393 34.5833 41.2499 33.5837C41.2532 33.1054 41.4464 32.648 41.787 32.3121C42.1275 31.9762 42.5875 31.7893 43.0659 31.7925ZM44.5601 33.5991C44.5348 32.7248 43.9176 32.1113 43.067 32.1079C42.1667 32.1045 41.5762 32.7956 41.5645 33.5988C41.5525 34.4366 42.2209 35.0813 43.0625 35.0967C43.8498 35.1118 44.5544 34.4512 44.5601 33.5991Z" fill="#4FC9EE"/>
<path d="M42.4881 33.6413C42.4881 33.3654 42.4907 33.0895 42.4881 32.8133C42.4854 32.6544 42.5566 32.5829 42.7139 32.5874C42.8712 32.592 43.0274 32.5844 43.184 32.5893C43.4154 32.5961 43.6074 32.697 43.6966 32.9089C43.7899 33.1305 43.7598 33.3631 43.5731 33.5325C43.4553 33.6394 43.4602 33.7022 43.5566 33.8208C43.721 34.0222 43.6943 34.2965 43.7847 34.5291C43.8069 34.586 43.7621 34.6379 43.6947 34.6477C43.5968 34.6616 43.5152 34.6323 43.4862 34.5314C43.4486 34.3993 43.4245 34.263 43.3891 34.1298C43.3221 33.8795 43.1591 33.75 42.9374 33.7557C42.8121 33.7587 42.7526 33.814 42.7526 33.9386C42.7526 34.1076 42.7526 34.2773 42.7485 34.4463C42.7455 34.5401 42.7485 34.6492 42.6089 34.6447C42.4817 34.6402 42.4884 34.5382 42.4881 34.4505C42.4869 34.1802 42.4881 33.9108 42.4881 33.6413ZM43.0105 32.8106C42.7816 32.8106 42.7519 32.8483 42.7508 33.1542C42.7508 33.4964 42.7681 33.5272 42.9721 33.5306C43.2641 33.5355 43.4534 33.3929 43.4519 33.1689C43.4504 32.945 43.2856 32.8118 43.0105 32.8106Z" fill="#4FC9EE"/>
</svg>
